<svg id="svg" version="1.1" xmlns="http://www.w3.org/2000/svg" xmlns:xlink="http://www.w3.org/1999/xlink" width="400" height="400" viewBox="0, 0, 400,400"><g id="svgg"><path id="path0" d="M199.615 62.098 C 198.894 63.588,198.160 64.719,197.985 64.610 C 197.809 64.501,197.781 64.714,197.922 65.083 C 198.096 65.535,198.032 65.662,197.727 65.473 C 197.422 65.285,197.358 65.412,197.532 65.864 C 197.705 66.316,197.641 66.443,197.336 66.255 C 197.032 66.066,196.968 66.194,197.141 66.645 C 197.315 67.097,197.251 67.224,196.946 67.036 C 196.661 66.860,196.571 66.958,196.702 67.301 C 196.953 67.955,193.068 76.017,192.566 75.884 C 192.373 75.832,192.327 76.081,192.463 76.436 C 192.643 76.904,192.568 76.993,192.194 76.762 C 191.861 76.556,191.770 76.593,191.938 76.866 C 192.264 77.393,191.007 80.119,190.565 79.846 C 190.388 79.736,190.335 79.885,190.446 80.176 C 190.711 80.867,182.857 96.949,182.394 96.663 C 182.199 96.542,182.156 96.745,182.297 97.114 C 182.471 97.566,182.407 97.693,182.102 97.505 C 181.797 97.316,181.733 97.444,181.907 97.895 C 182.095 98.386,182.025 98.480,181.647 98.246 C 181.282 98.021,181.222 98.076,181.442 98.433 C 181.834 99.067,177.358 108.258,176.819 107.925 C 176.612 107.797,176.559 107.882,176.702 108.113 C 177.031 108.646,176.172 110.593,175.729 110.319 C 175.548 110.207,175.515 110.417,175.657 110.786 C 175.830 111.238,175.766 111.365,175.461 111.177 C 175.157 110.988,175.093 111.116,175.266 111.567 C 175.454 112.058,175.385 112.152,175.006 111.918 C 174.642 111.693,174.581 111.748,174.800 112.102 C 175.192 112.735,171.499 120.367,170.962 120.036 C 170.753 119.907,170.696 119.985,170.835 120.210 C 171.224 120.839,169.216 125.093,168.686 124.765 C 168.395 124.585,168.346 124.663,168.547 124.987 C 168.907 125.570,166.442 130.928,165.953 130.626 C 165.778 130.517,165.750 130.730,165.891 131.098 C 166.045 131.499,165.992 131.672,165.760 131.529 C 165.545 131.396,165.385 131.673,165.401 132.148 C 165.418 132.665,165.224 132.965,164.912 132.900 C 164.615 132.839,164.511 132.980,164.667 133.234 C 165.002 133.775,163.288 137.551,162.835 137.270 C 162.656 137.159,162.625 137.370,162.766 137.739 C 162.954 138.230,162.885 138.324,162.506 138.090 C 162.141 137.864,162.081 137.920,162.303 138.278 C 162.696 138.914,157.045 150.445,156.505 150.111 C 156.298 149.984,156.247 150.069,156.390 150.301 C 156.719 150.833,155.859 152.780,155.416 152.507 C 155.235 152.395,155.203 152.605,155.344 152.973 C 155.518 153.425,155.454 153.553,155.149 153.364 C 154.844 153.176,154.780 153.303,154.954 153.755 C 155.142 154.246,155.072 154.339,154.694 154.105 C 154.332 153.882,154.269 153.935,154.484 154.284 C 154.844 154.866,152.380 160.225,151.891 159.922 C 151.715 159.814,151.687 160.027,151.829 160.395 C 152.002 160.847,151.938 160.974,151.633 160.786 C 151.328 160.597,151.265 160.725,151.438 161.177 C 151.611 161.628,151.548 161.756,151.243 161.567 C 150.938 161.379,150.874 161.506,151.047 161.958 C 151.221 162.410,151.157 162.537,150.852 162.348 C 150.547 162.160,150.483 162.287,150.657 162.739 C 150.830 163.191,150.766 163.318,150.461 163.130 C 150.157 162.941,150.093 163.069,150.266 163.520 C 150.454 164.011,150.385 164.105,150.006 163.871 C 149.643 163.647,149.581 163.701,149.798 164.052 C 150.159 164.635,147.301 170.771,146.811 170.468 C 146.636 170.360,146.609 170.574,146.751 170.942 C 146.939 171.433,146.869 171.527,146.490 171.293 C 146.126 171.067,146.066 171.123,146.287 171.480 C 146.648 172.066,141.832 182.099,141.336 181.793 C 141.165 181.687,141.140 181.902,141.282 182.270 C 141.470 182.761,141.400 182.855,141.022 182.621 C 140.664 182.400,140.597 182.451,140.804 182.787 C 141.158 183.359,135.969 194.206,135.485 193.907 C 135.309 193.798,135.281 194.011,135.422 194.380 C 135.596 194.831,135.532 194.959,135.227 194.770 C 134.922 194.582,134.858 194.709,135.032 195.161 C 135.205 195.613,135.141 195.740,134.836 195.552 C 134.532 195.363,134.468 195.491,134.641 195.942 C 134.815 196.394,134.751 196.521,134.446 196.333 C 134.161 196.157,134.071 196.255,134.202 196.596 C 134.436 197.206,130.981 204.534,130.515 204.418 C 130.351 204.377,130.229 204.728,130.245 205.199 C 130.262 205.713,130.067 206.012,129.756 205.947 C 129.451 205.884,129.354 206.026,129.518 206.292 C 129.851 206.831,126.562 213.718,126.106 213.436 C 125.932 213.329,125.906 213.542,126.047 213.911 C 126.221 214.363,126.157 214.490,125.852 214.302 C 125.547 214.113,125.483 214.241,125.657 214.692 C 125.830 215.144,125.766 215.271,125.461 215.083 C 125.157 214.894,125.093 215.022,125.266 215.473 C 125.454 215.964,125.385 216.058,125.006 215.824 C 124.644 215.600,124.581 215.654,124.797 216.003 C 125.157 216.585,122.692 221.943,122.203 221.641 C 122.028 221.533,122.000 221.745,122.141 222.114 C 122.329 222.605,122.260 222.699,121.881 222.465 C 121.527 222.246,121.457 222.295,121.659 222.622 C 122.040 223.239,117.978 231.692,117.455 231.369 C 117.242 231.237,117.182 231.316,117.324 231.545 C 117.767 232.262,117.171 233.285,116.591 232.804 C 116.227 232.501,116.004 232.515,115.795 232.854 C 115.610 233.153,115.669 233.222,115.958 233.043 C 116.210 232.888,116.513 233.026,116.639 233.356 C 116.927 234.105,115.243 237.161,114.720 236.838 C 114.488 236.694,114.457 236.800,114.644 237.102 C 115.005 237.687,111.364 245.381,110.870 245.076 C 110.697 244.969,110.672 245.183,110.813 245.552 C 111.001 246.042,110.932 246.136,110.553 245.902 C 110.215 245.693,110.129 245.734,110.305 246.018 C 110.641 246.563,105.246 258.042,104.714 257.915 C 104.500 257.864,104.436 258.112,104.573 258.467 C 104.738 258.897,104.669 259.019,104.368 258.833 C 104.063 258.644,103.999 258.772,104.172 259.223 C 104.346 259.675,104.282 259.803,103.977 259.614 C 103.672 259.426,103.608 259.553,103.782 260.005 C 103.955 260.456,103.891 260.584,103.586 260.395 C 103.282 260.207,103.218 260.334,103.391 260.786 C 103.579 261.277,103.510 261.371,103.131 261.137 C 102.769 260.913,102.706 260.967,102.922 261.315 C 103.282 261.898,100.817 267.256,100.328 266.954 C 100.153 266.845,100.125 267.058,100.266 267.427 C 100.440 267.878,100.376 268.006,100.071 267.817 C 99.766 267.629,99.702 267.756,99.876 268.208 C 100.049 268.660,99.985 268.787,99.680 268.598 C 99.391 268.419,99.307 268.524,99.447 268.890 C 99.725 269.616,98.527 271.977,98.035 271.672 C 97.824 271.542,97.776 271.732,97.922 272.114 C 98.111 272.605,98.041 272.699,97.662 272.465 C 97.303 272.243,97.238 272.295,97.449 272.636 C 97.836 273.264,96.109 277.009,95.583 276.683 C 95.368 276.550,95.310 276.634,95.455 276.868 C 95.778 277.390,93.734 281.677,93.293 281.404 C 93.119 281.297,93.093 281.511,93.235 281.880 C 93.423 282.371,93.354 282.464,92.975 282.230 C 92.610 282.005,92.550 282.060,92.771 282.418 C 93.133 283.004,87.926 293.818,87.430 293.511 C 87.258 293.405,87.234 293.620,87.376 293.989 C 87.549 294.441,87.485 294.568,87.180 294.380 C 86.875 294.191,86.812 294.319,86.985 294.770 C 87.158 295.222,87.095 295.349,86.790 295.161 C 86.485 294.972,86.421 295.100,86.594 295.552 C 86.783 296.042,86.713 296.136,86.334 295.902 C 85.969 295.677,85.909 295.732,86.130 296.090 C 86.522 296.724,81.655 306.695,81.115 306.362 C 80.894 306.225,80.867 306.338,81.051 306.635 C 81.382 307.171,77.401 315.706,76.949 315.427 C 76.812 315.343,76.713 315.660,76.729 316.133 C 76.745 316.609,76.546 316.951,76.284 316.899 C 75.991 316.842,75.904 317.054,76.057 317.452 C 76.222 317.882,76.154 318.004,75.852 317.817 C 75.568 317.641,75.477 317.740,75.608 318.082 C 75.723 318.381,74.841 320.631,73.648 323.082 C 72.455 325.534,71.564 327.762,71.667 328.034 C 71.818 328.429,78.548 328.508,105.061 328.424 L 138.266 328.320 138.886 327.435 C 139.228 326.948,139.697 326.667,139.931 326.812 C 140.190 326.972,140.242 326.891,140.066 326.606 C 139.728 326.058,141.680 323.319,142.186 323.632 C 142.372 323.747,142.651 323.635,142.807 323.384 C 142.983 323.098,142.920 323.031,142.638 323.205 C 142.390 323.358,142.187 323.325,142.188 323.130 C 142.188 322.649,143.568 321.432,143.824 321.688 C 143.937 321.801,144.274 321.582,144.573 321.201 C 145.068 320.571,145.055 320.556,144.434 321.044 C 143.387 321.865,143.618 321.178,144.956 319.488 C 145.620 318.650,146.311 318.057,146.492 318.169 C 146.673 318.281,146.948 318.166,147.104 317.915 C 147.280 317.629,147.217 317.562,146.935 317.736 C 146.138 318.229,146.455 317.351,147.392 316.471 C 147.892 316.002,148.447 315.751,148.627 315.914 C 148.806 316.077,148.849 316.027,148.721 315.802 C 148.424 315.279,149.045 314.258,149.660 314.258 C 149.919 314.258,150.160 313.861,150.196 313.376 C 150.267 312.404,151.886 310.460,152.374 310.761 C 152.542 310.865,152.808 310.744,152.963 310.493 C 153.140 310.207,153.076 310.140,152.795 310.314 C 152.547 310.468,152.344 310.434,152.344 310.240 C 152.344 309.808,153.940 308.321,154.110 308.594 C 154.177 308.701,154.378 308.629,154.557 308.433 C 154.746 308.227,154.678 308.196,154.395 308.359 C 154.126 308.513,153.906 308.464,153.906 308.249 C 153.906 307.858,154.654 307.244,155.143 307.233 C 155.286 307.229,155.550 307.067,155.729 306.871 C 155.918 306.664,155.850 306.633,155.566 306.796 C 154.834 307.218,154.979 306.458,155.762 305.773 C 156.138 305.445,156.754 305.226,157.131 305.288 C 157.508 305.350,157.715 305.237,157.592 305.037 C 157.469 304.838,157.204 304.776,157.004 304.899 C 156.355 305.301,156.620 304.436,157.349 303.777 C 157.917 303.263,158.165 303.232,158.600 303.619 C 159.059 304.028,159.063 303.997,158.625 303.418 C 158.077 302.694,158.705 301.344,159.392 301.768 C 159.568 301.877,159.839 301.760,159.994 301.509 C 160.171 301.223,160.108 301.156,159.826 301.330 C 159.578 301.483,159.375 301.450,159.375 301.255 C 159.375 300.828,160.588 299.689,161.133 299.605 C 161.348 299.571,161.611 299.443,161.719 299.319 C 161.826 299.195,161.694 299.220,161.426 299.374 C 161.157 299.529,160.938 299.497,160.938 299.302 C 160.938 298.803,162.322 297.609,162.590 297.877 C 162.713 297.999,162.786 297.784,162.754 297.399 C 162.722 297.014,162.906 296.694,163.164 296.689 C 163.422 296.684,163.861 296.424,164.141 296.113 C 164.579 295.623,164.555 295.616,163.965 296.063 C 163.589 296.347,163.281 296.410,163.281 296.202 C 163.281 295.787,164.419 294.661,165.039 294.461 C 165.254 294.392,165.380 294.186,165.318 294.002 C 165.140 293.466,166.065 292.563,166.511 292.838 C 166.755 292.989,166.800 292.899,166.624 292.614 C 166.297 292.086,167.497 290.529,167.994 290.836 C 168.165 290.942,168.433 290.823,168.588 290.571 C 168.765 290.285,168.701 290.218,168.420 290.392 C 167.712 290.830,167.893 290.031,168.652 289.367 C 169.028 289.038,169.644 288.820,170.021 288.882 C 170.398 288.943,170.606 288.831,170.483 288.631 C 170.359 288.432,170.095 288.370,169.895 288.493 C 169.695 288.617,169.531 288.542,169.531 288.327 C 169.531 287.936,170.279 287.322,170.768 287.311 C 170.911 287.307,171.175 287.145,171.354 286.949 C 171.543 286.742,171.475 286.711,171.191 286.874 C 170.283 287.397,170.696 286.643,172.691 284.136 C 173.784 282.762,174.827 281.729,175.008 281.841 C 175.189 281.953,175.464 281.838,175.619 281.587 C 175.796 281.301,175.733 281.234,175.451 281.408 C 175.203 281.561,175.000 281.528,175.000 281.334 C 175.000 280.905,176.569 279.439,176.831 279.622 C 176.934 279.694,177.135 279.622,177.279 279.462 C 177.422 279.302,177.319 279.298,177.051 279.453 C 176.782 279.607,176.563 279.558,176.563 279.343 C 176.563 278.915,177.314 278.346,177.930 278.309 C 178.145 278.295,178.270 278.055,178.209 277.773 C 178.070 277.136,178.882 276.111,179.314 276.378 C 179.490 276.486,179.761 276.369,179.916 276.118 C 180.093 275.832,180.030 275.765,179.748 275.939 C 179.028 276.384,179.227 275.575,180.012 274.864 C 180.406 274.508,180.873 274.349,181.051 274.511 C 181.230 274.672,181.242 274.574,181.079 274.292 C 180.753 273.728,181.935 272.160,182.447 272.477 C 182.618 272.582,182.886 272.463,183.041 272.212 C 183.218 271.926,183.155 271.859,182.873 272.033 C 182.625 272.186,182.422 272.147,182.422 271.946 C 182.422 271.397,183.430 270.669,183.748 270.988 C 183.901 271.140,183.899 270.934,183.743 270.529 C 183.555 270.039,183.604 269.882,183.891 270.059 C 184.128 270.206,184.448 270.119,184.604 269.868 C 184.780 269.582,184.717 269.515,184.435 269.689 C 183.861 270.044,183.863 270.026,184.612 267.828 C 185.083 266.445,185.179 265.233,184.996 262.973 C 184.644 258.610,184.594 258.263,184.346 258.416 C 183.918 258.681,181.135 252.455,181.452 251.943 C 181.669 251.592,181.607 251.537,181.244 251.762 C 180.865 251.996,180.796 251.902,180.984 251.411 C 181.125 251.042,181.097 250.830,180.922 250.938 C 180.433 251.240,177.968 245.882,178.328 245.300 C 178.511 245.003,178.479 244.898,178.249 245.040 C 177.719 245.368,175.597 240.848,175.986 240.219 C 176.170 239.921,176.135 239.820,175.899 239.966 C 175.410 240.269,174.503 238.379,174.860 237.801 C 175.003 237.569,174.942 237.490,174.724 237.624 C 174.202 237.947,172.872 234.975,173.259 234.349 C 173.452 234.035,173.398 233.963,173.104 234.144 C 172.853 234.299,172.551 234.164,172.427 233.841 C 172.128 233.063,173.412 230.407,173.931 230.728 C 174.157 230.867,174.224 230.794,174.083 230.564 C 173.772 230.063,174.185 228.839,174.582 229.084 C 174.736 229.180,174.850 228.871,174.834 228.399 C 174.818 227.922,175.016 227.581,175.279 227.632 C 175.571 227.689,175.658 227.478,175.505 227.080 C 175.340 226.650,175.409 226.528,175.710 226.714 C 176.015 226.903,176.079 226.775,175.906 226.323 C 175.732 225.872,175.796 225.744,176.101 225.933 C 176.406 226.121,176.470 225.994,176.296 225.542 C 176.108 225.051,176.178 224.957,176.556 225.192 C 176.885 225.395,176.980 225.360,176.817 225.096 C 176.479 224.549,176.936 223.381,177.380 223.655 C 177.570 223.773,177.610 223.567,177.468 223.198 C 177.280 222.708,177.350 222.614,177.728 222.848 C 178.063 223.055,178.152 223.016,177.981 222.739 C 177.631 222.173,182.077 213.263,182.560 213.562 C 182.765 213.689,182.814 213.599,182.668 213.363 C 182.319 212.799,191.456 194.516,191.938 194.814 C 192.141 194.940,192.188 194.848,192.041 194.611 C 191.797 194.215,200.539 176.172,200.975 176.172 C 201.414 176.172,205.501 184.901,205.303 185.415 C 205.184 185.725,205.252 185.876,205.454 185.752 C 205.947 185.447,206.757 187.023,206.480 187.746 C 206.354 188.073,206.428 188.218,206.650 188.080 C 207.132 187.782,209.475 192.882,209.120 193.457 C 208.979 193.684,209.034 193.765,209.243 193.636 C 209.780 193.304,213.473 200.937,213.081 201.570 C 212.888 201.883,212.925 201.978,213.180 201.820 C 213.672 201.516,214.172 202.631,213.808 203.221 C 213.660 203.460,213.735 203.522,213.986 203.368 C 214.530 203.031,215.764 205.323,215.462 206.110 C 215.322 206.476,215.406 206.581,215.696 206.402 C 216.001 206.213,216.065 206.340,215.891 206.792 C 215.718 207.244,215.782 207.371,216.086 207.183 C 216.391 206.994,216.455 207.122,216.282 207.573 C 216.140 207.942,216.164 208.158,216.334 208.052 C 216.832 207.745,223.213 220.899,222.851 221.486 C 222.628 221.846,222.687 221.902,223.053 221.676 C 223.432 221.442,223.501 221.536,223.313 222.027 C 223.171 222.398,223.216 222.598,223.416 222.474 C 223.781 222.249,228.906 232.487,228.906 233.443 C 228.906 234.210,227.249 237.488,226.953 237.305 C 226.814 237.219,226.713 237.535,226.729 238.008 C 226.745 238.480,226.569 238.834,226.339 238.793 C 226.108 238.752,225.932 239.103,225.948 239.574 C 225.964 240.047,225.764 240.388,225.502 240.337 C 225.242 240.286,225.119 240.479,225.229 240.767 C 225.485 241.435,219.592 253.357,219.077 253.213 C 218.865 253.154,218.798 253.278,218.929 253.489 C 219.244 253.999,218.077 256.753,217.655 256.493 C 217.473 256.381,217.338 256.676,217.354 257.148 C 217.371 257.665,217.177 257.965,216.865 257.900 C 216.581 257.841,216.457 257.970,216.591 258.186 C 216.724 258.401,216.561 259.379,216.229 260.357 C 215.466 262.606,215.457 265.442,216.208 267.571 C 216.529 268.480,216.692 269.385,216.570 269.583 C 216.448 269.780,216.520 269.893,216.730 269.834 C 216.941 269.775,217.657 270.472,218.322 271.383 C 219.624 273.167,219.814 273.646,219.043 273.203 C 218.759 273.039,218.691 273.071,218.880 273.277 C 219.059 273.473,219.323 273.636,219.466 273.639 C 219.956 273.650,220.703 274.264,220.703 274.655 C 220.703 274.870,220.500 274.921,220.252 274.767 C 219.964 274.589,219.908 274.661,220.096 274.966 C 220.258 275.228,220.491 275.343,220.613 275.220 C 220.881 274.952,222.266 276.147,222.266 276.646 C 222.266 276.840,222.046 276.873,221.777 276.718 C 221.494 276.555,221.425 276.586,221.615 276.793 C 221.794 276.988,222.057 277.151,222.201 277.154 C 222.690 277.166,223.438 277.780,223.438 278.171 C 223.438 278.386,223.235 278.436,222.987 278.283 C 222.698 278.105,222.642 278.176,222.830 278.481 C 222.992 278.744,223.225 278.858,223.347 278.736 C 223.623 278.461,225.000 279.669,225.000 280.186 C 225.000 280.394,224.692 280.323,224.316 280.028 C 223.712 279.554,223.689 279.564,224.118 280.114 C 224.384 280.456,224.472 280.890,224.313 281.078 C 224.154 281.266,224.308 281.203,224.655 280.939 C 225.418 280.359,226.429 281.277,225.948 282.112 C 225.787 282.390,225.802 282.485,225.980 282.323 C 226.309 282.025,227.734 283.078,227.734 283.620 C 227.734 283.988,226.947 283.883,226.172 283.410 C 225.677 283.109,225.664 283.150,226.091 283.677 C 226.369 284.020,226.897 284.252,227.263 284.191 C 227.961 284.077,229.297 285.022,229.297 285.630 C 229.297 285.825,229.158 285.898,228.987 285.792 C 228.817 285.687,228.651 285.961,228.618 286.401 C 228.563 287.131,228.600 287.143,229.041 286.541 C 229.468 285.957,229.830 286.270,232.145 289.225 C 234.758 292.560,235.203 293.288,234.277 292.710 C 233.468 292.204,232.943 292.244,232.943 292.811 C 232.943 293.194,233.081 293.232,233.429 292.944 C 233.764 292.665,233.995 292.669,234.172 292.956 C 234.313 293.185,234.579 293.279,234.763 293.166 C 234.947 293.052,236.517 294.792,238.252 297.032 C 241.311 300.983,241.895 301.910,240.955 301.330 C 240.674 301.156,240.610 301.223,240.787 301.509 C 240.942 301.760,241.213 301.877,241.389 301.768 C 241.887 301.460,242.680 302.641,242.354 303.206 C 242.193 303.484,242.206 303.581,242.382 303.421 C 242.558 303.262,242.937 303.328,243.226 303.567 C 243.866 304.098,243.927 304.843,243.299 304.455 C 243.017 304.281,242.954 304.348,243.131 304.634 C 243.286 304.885,243.551 305.006,243.718 304.903 C 244.061 304.690,244.708 305.391,247.368 308.857 C 249.129 311.152,249.611 312.007,248.893 311.564 C 248.714 311.453,248.568 311.616,248.568 311.925 C 248.568 312.307,248.713 312.367,249.020 312.112 C 249.314 311.868,249.632 311.898,249.931 312.197 C 250.523 312.788,250.529 313.413,249.940 313.049 C 249.651 312.871,249.595 312.942,249.783 313.247 C 249.946 313.509,250.178 313.624,250.300 313.502 C 250.568 313.234,251.953 314.428,251.953 314.927 C 251.953 315.122,251.733 315.154,251.465 314.999 C 251.181 314.836,251.113 314.867,251.302 315.074 C 251.481 315.270,251.818 315.430,252.051 315.430 C 252.284 315.430,252.555 315.674,252.655 315.972 C 252.779 316.344,252.665 316.416,252.297 316.203 C 251.979 316.018,251.891 316.036,252.083 316.246 C 252.262 316.442,252.526 316.604,252.669 316.608 C 253.159 316.619,253.906 317.233,253.906 317.624 C 253.906 317.839,253.703 317.889,253.455 317.736 C 253.174 317.562,253.110 317.629,253.287 317.915 C 253.442 318.166,253.718 318.281,253.899 318.169 C 254.080 318.057,254.771 318.650,255.434 319.488 C 256.633 321.001,256.973 321.736,256.277 321.306 C 256.077 321.182,255.812 321.244,255.689 321.444 C 255.566 321.643,255.773 321.757,256.150 321.696 C 256.897 321.575,257.813 322.143,257.813 322.727 C 257.813 322.928,257.610 322.968,257.362 322.814 C 257.080 322.640,257.017 322.707,257.193 322.993 C 257.349 323.244,257.627 323.357,257.812 323.242 C 257.997 323.128,258.987 324.136,260.013 325.482 C 261.038 326.828,262.062 328.059,262.286 328.217 C 262.947 328.680,329.297 328.583,329.297 328.118 C 329.297 327.899,328.407 325.946,327.319 323.778 C 326.230 321.610,325.437 319.582,325.556 319.272 C 325.675 318.963,325.630 318.797,325.456 318.905 C 324.964 319.209,321.715 312.294,322.076 311.710 C 322.257 311.416,322.230 311.304,322.010 311.440 C 321.471 311.773,316.211 301.022,316.604 300.387 C 316.811 300.052,316.764 299.974,316.466 300.158 C 315.935 300.487,315.093 298.591,315.487 297.954 C 315.629 297.724,315.574 297.642,315.363 297.772 C 314.829 298.102,311.921 292.027,312.311 291.396 C 312.494 291.101,312.464 290.992,312.240 291.130 C 311.704 291.461,308.404 284.608,308.794 283.976 C 309.013 283.623,308.951 283.568,308.588 283.793 C 308.209 284.027,308.139 283.933,308.328 283.442 C 308.469 283.074,308.443 282.859,308.270 282.966 C 307.777 283.271,304.135 275.577,304.497 274.993 C 304.680 274.696,304.653 274.585,304.430 274.722 C 303.892 275.055,299.807 266.643,300.199 266.010 C 300.419 265.654,300.358 265.599,299.994 265.824 C 299.615 266.058,299.546 265.964,299.734 265.473 C 299.875 265.105,299.847 264.892,299.672 265.001 C 299.216 265.282,296.713 259.953,297.047 259.413 C 297.209 259.151,297.109 259.010,296.806 259.072 C 296.495 259.137,296.301 258.837,296.318 258.320 C 296.334 257.847,296.233 257.531,296.094 257.617 C 295.646 257.894,292.840 251.696,293.171 251.161 C 293.387 250.810,293.325 250.756,292.963 250.980 C 292.584 251.214,292.514 251.121,292.703 250.630 C 292.876 250.178,292.812 250.051,292.507 250.239 C 292.202 250.428,292.139 250.300,292.312 249.848 C 292.453 249.480,292.426 249.266,292.252 249.374 C 291.761 249.678,288.904 243.541,289.264 242.958 C 289.456 242.649,289.418 242.554,289.165 242.710 C 288.660 243.022,285.824 237.187,286.114 236.432 C 286.227 236.138,286.153 235.999,285.951 236.125 C 285.483 236.414,282.720 230.491,282.992 229.783 C 283.103 229.493,283.039 229.352,282.849 229.470 C 282.405 229.744,281.948 228.576,282.286 228.029 C 282.427 227.801,282.367 227.722,282.152 227.855 C 281.625 228.181,279.898 224.435,280.286 223.808 C 280.467 223.515,280.431 223.415,280.195 223.560 C 279.693 223.871,276.834 218.061,277.121 217.314 C 277.257 216.960,277.169 216.858,276.882 217.036 C 276.577 217.224,276.514 217.097,276.687 216.645 C 276.828 216.277,276.801 216.063,276.627 216.171 C 276.171 216.453,273.275 210.345,273.608 209.806 C 273.771 209.542,273.672 209.400,273.369 209.463 C 273.058 209.528,272.863 209.228,272.880 208.711 C 272.896 208.238,272.789 207.926,272.642 208.017 C 272.209 208.284,270.977 205.192,271.305 204.661 C 271.512 204.326,271.445 204.275,271.088 204.496 C 270.709 204.730,270.639 204.636,270.828 204.145 C 271.001 203.694,270.937 203.566,270.632 203.755 C 270.331 203.941,270.262 203.819,270.427 203.389 C 270.580 202.991,270.493 202.779,270.201 202.837 C 269.938 202.888,269.739 202.546,269.755 202.070 C 269.771 201.597,269.658 201.289,269.503 201.384 C 269.107 201.629,268.694 200.406,269.004 199.904 C 269.146 199.676,269.090 199.595,268.881 199.724 C 268.345 200.055,265.044 193.202,265.435 192.569 C 265.653 192.217,265.592 192.162,265.228 192.387 C 264.850 192.621,264.780 192.527,264.968 192.036 C 265.142 191.584,265.078 191.457,264.773 191.645 C 264.468 191.834,264.404 191.706,264.578 191.255 C 264.719 190.886,264.693 190.672,264.519 190.780 C 264.027 191.084,260.777 184.169,261.138 183.585 C 261.326 183.281,261.293 183.179,261.055 183.326 C 260.566 183.628,259.659 181.738,260.016 181.160 C 260.183 180.890,260.091 180.854,259.760 181.058 C 259.381 181.293,259.311 181.199,259.499 180.708 C 259.673 180.256,259.609 180.129,259.304 180.317 C 258.999 180.506,258.935 180.378,259.109 179.927 C 259.250 179.558,259.224 179.344,259.050 179.451 C 258.558 179.756,255.309 172.841,255.669 172.257 C 255.873 171.927,255.825 171.850,255.528 172.033 C 254.997 172.362,254.156 170.466,254.550 169.829 C 254.692 169.599,254.637 169.517,254.427 169.646 C 253.903 169.970,249.829 161.530,250.211 160.912 C 250.419 160.576,250.351 160.525,249.994 160.746 C 249.615 160.980,249.546 160.886,249.734 160.395 C 249.907 159.944,249.843 159.816,249.539 160.005 C 249.234 160.193,249.170 160.066,249.343 159.614 C 249.517 159.162,249.453 159.035,249.148 159.223 C 248.843 159.412,248.779 159.285,248.953 158.833 C 249.094 158.464,249.070 158.249,248.900 158.354 C 248.402 158.662,242.412 146.287,242.775 145.701 C 242.960 145.401,242.935 145.287,242.713 145.425 C 242.174 145.758,237.306 135.787,237.698 135.152 C 237.888 134.844,237.857 134.740,237.617 134.888 C 237.094 135.212,236.290 133.397,236.571 132.524 C 236.727 132.039,236.687 131.982,236.435 132.331 C 235.991 132.947,234.136 129.219,234.551 128.546 C 234.708 128.293,234.604 128.151,234.306 128.213 C 233.995 128.278,233.801 127.978,233.818 127.461 C 233.834 126.988,233.731 126.673,233.588 126.761 C 233.180 127.014,228.060 116.358,228.295 115.744 C 228.429 115.397,228.340 115.297,228.054 115.473 C 227.749 115.662,227.685 115.535,227.859 115.083 C 228.032 114.631,227.968 114.504,227.664 114.692 C 227.359 114.881,227.295 114.753,227.468 114.302 C 227.642 113.850,227.578 113.722,227.273 113.911 C 226.968 114.099,226.904 113.972,227.078 113.520 C 227.219 113.152,227.191 112.939,227.015 113.047 C 226.527 113.350,224.062 107.991,224.422 107.409 C 224.637 107.060,224.575 107.007,224.213 107.230 C 223.834 107.464,223.764 107.371,223.953 106.880 C 224.105 106.482,224.053 106.306,223.824 106.448 C 223.275 106.787,223.345 106.120,223.926 105.468 C 224.339 105.005,224.312 104.997,223.755 105.417 C 223.027 105.966,220.065 100.426,220.492 99.314 C 220.603 99.025,220.519 98.896,220.305 99.028 C 219.665 99.424,219.402 98.090,219.976 97.358 C 220.456 96.746,220.442 96.731,219.831 97.210 C 219.088 97.793,218.060 96.113,218.612 95.219 C 218.777 94.953,218.683 94.917,218.353 95.121 C 217.975 95.355,217.905 95.261,218.093 94.770 C 218.235 94.402,218.208 94.188,218.035 94.295 C 217.542 94.599,214.293 87.685,214.654 87.101 C 214.872 86.748,214.810 86.693,214.447 86.918 C 214.068 87.152,213.999 87.058,214.187 86.567 C 214.328 86.199,214.296 85.989,214.114 86.101 C 213.675 86.372,208.114 74.623,208.368 73.962 C 208.477 73.679,208.392 73.489,208.180 73.540 C 207.968 73.591,206.295 70.473,204.461 66.612 C 202.628 62.751,201.082 59.546,201.027 59.490 C 200.971 59.435,200.336 60.608,199.615 62.098 M202.374 120.318 C 205.048 120.825,207.901 122.186,207.556 122.789 C 207.413 123.038,207.436 123.117,207.606 122.963 C 208.063 122.550,209.441 123.405,209.130 123.908 C 208.980 124.152,209.041 124.230,209.270 124.088 C 209.713 123.815,210.678 124.738,210.322 125.094 C 210.202 125.214,210.319 125.445,210.581 125.607 C 210.906 125.808,210.957 125.739,210.742 125.391 C 210.534 125.054,210.579 124.974,210.873 125.155 C 211.684 125.657,213.365 128.905,213.130 129.517 C 212.981 129.906,213.058 130.021,213.347 129.842 C 213.652 129.654,213.724 129.835,213.575 130.408 C 213.453 130.872,213.513 131.153,213.708 131.032 C 213.909 130.908,214.063 132.187,214.063 133.984 C 214.063 136.282,213.938 137.079,213.612 136.877 C 213.325 136.699,213.267 136.770,213.453 137.071 C 213.879 137.760,213.351 139.542,212.819 139.213 C 212.564 139.056,212.487 139.116,212.636 139.358 C 212.957 139.877,212.527 141.079,212.113 140.822 C 211.944 140.718,211.831 140.939,211.861 141.313 C 211.890 141.686,211.694 141.948,211.426 141.895 C 211.157 141.841,210.958 141.929,210.984 142.090 C 211.129 143.008,210.706 143.531,208.516 145.143 C 207.039 146.231,205.821 146.854,205.391 146.741 C 204.959 146.628,204.786 146.718,204.943 146.973 C 205.108 147.239,204.898 147.310,204.357 147.168 C 203.894 147.047,203.600 147.086,203.704 147.254 C 203.952 147.656,201.932 148.048,199.658 148.041 C 198.310 148.036,198.000 147.934,198.438 147.638 C 198.874 147.343,198.755 147.304,197.970 147.486 C 196.761 147.767,194.024 146.988,194.353 146.457 C 194.473 146.262,194.270 146.218,193.902 146.360 C 193.480 146.522,193.326 146.464,193.486 146.204 C 193.632 145.969,193.449 145.814,193.062 145.845 C 192.686 145.875,192.431 145.667,192.490 145.381 C 192.549 145.097,192.410 144.980,192.180 145.122 C 191.633 145.460,190.560 144.561,190.885 144.036 C 191.024 143.811,190.949 143.745,190.717 143.889 C 190.192 144.213,188.592 142.242,188.933 141.691 C 189.080 141.453,188.993 141.403,188.724 141.570 C 187.674 142.218,186.133 137.591,186.133 133.789 C 186.133 129.987,187.674 125.360,188.724 126.009 C 188.994 126.176,189.079 126.125,188.931 125.885 C 188.628 125.395,190.989 122.984,191.476 123.285 C 191.663 123.401,191.768 123.263,191.709 122.978 C 191.650 122.692,191.905 122.485,192.281 122.514 C 192.667 122.545,192.850 122.390,192.705 122.155 C 192.545 121.895,192.698 121.838,193.120 121.999 C 193.572 122.173,193.699 122.109,193.511 121.804 C 193.322 121.499,193.450 121.435,193.902 121.609 C 194.289 121.757,194.474 121.708,194.340 121.491 C 194.045 121.014,195.892 120.533,196.523 120.922 C 196.814 121.102,196.894 121.051,196.733 120.789 C 196.494 120.402,197.085 120.239,199.654 119.984 C 200.000 119.950,201.225 120.100,202.374 120.318 M140.914 253.370 C 141.395 253.499,141.702 253.744,141.597 253.914 C 141.491 254.085,141.784 254.125,142.248 254.004 C 142.876 253.839,143.010 253.914,142.774 254.296 C 142.561 254.640,142.609 254.714,142.920 254.522 C 143.544 254.137,146.970 256.170,146.629 256.723 C 146.475 256.971,146.542 257.042,146.788 256.890 C 147.177 256.649,147.831 257.260,147.846 257.878 C 147.849 258.021,148.012 258.285,148.207 258.464 C 148.418 258.656,148.433 258.565,148.244 258.240 C 148.032 257.873,148.074 257.783,148.373 257.968 C 149.184 258.469,150.865 261.717,150.630 262.330 C 150.503 262.661,150.553 262.836,150.741 262.720 C 151.247 262.407,151.551 263.932,151.555 266.797 C 151.559 269.625,150.934 272.406,150.374 272.060 C 150.169 271.933,150.121 272.128,150.266 272.505 C 150.454 272.996,150.385 273.089,150.006 272.855 C 149.665 272.645,149.582 272.687,149.762 272.978 C 150.118 273.553,149.296 275.094,148.799 274.787 C 148.589 274.657,148.443 274.696,148.474 274.873 C 148.632 275.785,148.260 276.281,146.306 277.756 C 145.052 278.703,143.983 279.245,143.707 279.075 C 143.418 278.896,143.341 278.951,143.506 279.218 C 143.852 279.778,140.267 280.859,138.064 280.859 C 135.927 280.859,133.947 280.455,134.187 280.067 C 134.291 279.898,133.997 279.860,133.533 279.981 C 132.960 280.131,132.779 280.058,132.967 279.754 C 133.143 279.468,133.035 279.386,132.668 279.527 C 131.977 279.792,130.363 279.003,130.649 278.540 C 130.760 278.360,130.545 278.237,130.172 278.267 C 129.798 278.296,129.536 278.101,129.590 277.832 C 129.644 277.563,129.556 277.365,129.395 277.390 C 128.593 277.517,128.170 277.192,126.807 275.404 C 125.948 274.278,125.448 273.270,125.615 273.000 C 125.784 272.726,125.736 272.638,125.496 272.786 C 124.609 273.335,123.291 267.783,123.670 265.095 C 124.030 262.544,124.627 260.902,125.092 261.190 C 125.343 261.345,125.398 261.265,125.228 260.991 C 124.856 260.388,126.507 257.732,127.047 258.066 C 127.277 258.208,127.352 258.142,127.213 257.917 C 126.900 257.411,127.884 256.541,128.321 256.937 C 128.497 257.096,128.520 257.016,128.372 256.758 C 128.064 256.222,129.419 255.347,129.894 255.775 C 130.064 255.929,130.097 255.867,129.967 255.638 C 129.655 255.090,131.904 253.774,132.658 254.063 C 132.980 254.187,133.145 254.127,133.023 253.931 C 132.603 253.252,138.821 252.809,140.914 253.370 M265.432 253.511 C 265.293 253.736,265.459 253.796,265.829 253.653 C 266.535 253.383,270.387 255.032,270.107 255.485 C 270.010 255.642,270.236 255.747,270.610 255.718 C 271.026 255.685,271.239 255.891,271.159 256.250 C 271.087 256.572,271.162 256.702,271.325 256.539 C 271.728 256.137,273.476 257.825,273.170 258.320 C 273.036 258.537,273.119 258.595,273.355 258.449 C 273.919 258.101,275.934 261.538,275.630 262.330 C 275.503 262.661,275.562 262.831,275.761 262.708 C 276.290 262.381,276.696 265.738,276.453 268.423 C 275.703 276.695,266.891 282.646,258.852 280.309 C 257.621 279.951,256.716 279.491,256.842 279.286 C 256.974 279.074,256.785 279.025,256.402 279.172 C 255.950 279.346,255.822 279.282,256.011 278.977 C 256.182 278.701,256.093 278.599,255.782 278.716 C 255.502 278.821,254.746 278.455,254.102 277.902 C 253.457 277.349,253.193 277.025,253.516 277.183 C 253.838 277.340,253.984 277.338,253.841 277.179 C 253.698 277.019,253.505 276.947,253.413 277.018 C 253.113 277.251,251.956 276.093,252.159 275.764 C 252.268 275.588,252.151 275.317,251.899 275.162 C 251.586 274.969,251.546 275.053,251.772 275.428 C 252.055 275.896,252.004 275.896,251.424 275.426 C 251.051 275.123,250.840 274.630,250.954 274.331 C 251.085 273.989,250.995 273.891,250.710 274.067 C 250.405 274.256,250.342 274.128,250.515 273.677 C 250.688 273.225,250.625 273.097,250.320 273.286 C 250.015 273.474,249.951 273.347,250.124 272.895 C 250.298 272.444,250.234 272.316,249.929 272.505 C 249.630 272.690,249.558 272.571,249.718 272.154 C 249.896 271.691,249.794 271.588,249.330 271.766 C 248.928 271.920,248.796 271.852,248.966 271.577 C 249.113 271.340,249.006 270.475,248.730 269.655 C 247.980 267.434,248.743 261.379,249.698 261.969 C 249.939 262.118,250.009 262.049,249.860 261.808 C 249.549 261.304,250.379 259.322,250.794 259.578 C 250.953 259.677,251.060 259.451,251.030 259.078 C 250.997 258.661,251.203 258.449,251.563 258.529 C 251.885 258.600,252.015 258.525,251.852 258.362 C 251.475 257.985,253.121 256.201,253.582 256.486 C 253.771 256.603,253.877 256.466,253.818 256.181 C 253.759 255.895,254.015 255.688,254.390 255.718 C 254.764 255.747,254.978 255.623,254.866 255.441 C 254.579 254.977,256.980 253.803,257.673 254.069 C 257.987 254.189,258.145 254.127,258.023 253.931 C 257.700 253.409,258.785 253.221,262.425 253.170 C 264.476 253.142,265.583 253.267,265.432 253.511 M96.191 329.176 C 96.567 329.274,97.183 329.274,97.559 329.176 C 97.935 329.077,97.627 328.997,96.875 328.997 C 96.123 328.997,95.815 329.077,96.191 329.176 M98.926 329.176 C 99.302 329.274,99.917 329.274,100.293 329.176 C 100.669 329.077,100.361 328.997,99.609 328.997 C 98.857 328.997,98.550 329.077,98.926 329.176 M112.603 329.187 C 113.197 329.276,114.076 329.274,114.556 329.181 C 115.037 329.089,114.551 329.015,113.477 329.018 C 112.402 329.021,112.009 329.097,112.603 329.187 M124.316 329.191 C 125.122 329.275,126.440 329.275,127.246 329.191 C 128.052 329.107,127.393 329.038,125.781 329.038 C 124.170 329.038,123.511 329.107,124.316 329.191 M130.753 329.188 C 131.446 329.274,132.677 329.276,133.487 329.191 C 134.298 329.107,133.730 329.036,132.227 329.034 C 130.723 329.033,130.060 329.102,130.753 329.188 M267.876 329.183 C 268.362 329.276,269.065 329.272,269.438 329.175 C 269.812 329.077,269.414 329.000,268.555 329.005 C 267.695 329.009,267.390 329.089,267.876 329.183 M270.801 329.176 C 271.177 329.274,271.792 329.274,272.168 329.176 C 272.544 329.077,272.236 328.997,271.484 328.997 C 270.732 328.997,270.425 329.077,270.801 329.176 M274.902 329.192 C 275.815 329.275,277.310 329.275,278.223 329.192 C 279.136 329.110,278.389 329.043,276.563 329.043 C 274.736 329.043,273.989 329.110,274.902 329.192 M282.331 329.189 C 283.033 329.276,284.088 329.274,284.675 329.185 C 285.262 329.096,284.688 329.025,283.398 329.027 C 282.109 329.029,281.629 329.102,282.331 329.189 M287.413 329.193 C 288.331 329.275,289.738 329.274,290.538 329.190 C 291.338 329.106,290.586 329.039,288.867 329.040 C 287.148 329.042,286.494 329.110,287.413 329.193 M293.848 329.186 C 294.438 329.276,295.405 329.276,295.996 329.186 C 296.587 329.097,296.104 329.023,294.922 329.023 C 293.740 329.023,293.257 329.097,293.848 329.186 M298.347 329.189 C 299.049 329.276,300.104 329.274,300.691 329.185 C 301.278 329.096,300.703 329.025,299.414 329.027 C 298.125 329.029,297.645 329.102,298.347 329.189 M302.641 329.183 C 303.127 329.276,303.830 329.272,304.204 329.175 C 304.577 329.077,304.180 329.000,303.320 329.005 C 302.461 329.009,302.155 329.089,302.641 329.183 M308.105 329.182 C 308.589 329.275,309.380 329.275,309.863 329.182 C 310.347 329.089,309.951 329.013,308.984 329.013 C 308.018 329.013,307.622 329.089,308.105 329.182 M311.426 329.176 C 311.802 329.274,312.417 329.274,312.793 329.176 C 313.169 329.077,312.861 328.997,312.109 328.997 C 311.357 328.997,311.050 329.077,311.426 329.176 M314.360 329.183 C 314.846 329.276,315.549 329.272,315.923 329.175 C 316.296 329.077,315.898 329.000,315.039 329.005 C 314.180 329.009,313.874 329.089,314.360 329.183 M320.610 329.183 C 321.096 329.276,321.799 329.272,322.173 329.175 C 322.546 329.077,322.148 329.000,321.289 329.005 C 320.430 329.009,320.124 329.089,320.610 329.183 M323.926 329.176 C 324.302 329.274,324.917 329.274,325.293 329.176 C 325.669 329.077,325.361 328.997,324.609 328.997 C 323.857 328.997,323.550 329.077,323.926 329.176 " stroke="none" fill="#4b57fb" fill-rule="evenodd"></path><path id="path1" d="M196.289 121.641 C 195.430 121.914,194.001 122.510,193.115 122.966 C 192.228 123.422,191.365 123.670,191.197 123.518 C 191.028 123.366,191.001 123.436,191.136 123.674 C 191.405 124.144,189.732 125.930,189.366 125.563 C 189.242 125.440,189.158 125.570,189.178 125.853 C 189.199 126.136,188.786 127.246,188.261 128.320 C 187.351 130.180,186.720 138.959,187.533 138.456 C 187.916 138.220,188.712 140.244,188.421 140.715 C 188.276 140.950,188.341 141.025,188.569 140.884 C 188.793 140.745,189.258 141.061,189.602 141.586 C 191.747 144.860,195.391 146.668,199.805 146.648 C 203.504 146.632,205.840 146.387,205.627 146.037 C 205.412 145.684,206.632 145.261,207.076 145.536 C 207.277 145.660,207.393 145.528,207.334 145.244 C 207.275 144.958,207.530 144.750,207.906 144.780 C 208.280 144.810,208.506 144.705,208.408 144.547 C 208.177 144.173,210.324 142.115,210.672 142.377 C 210.818 142.488,210.857 142.468,210.758 142.333 C 210.425 141.880,211.741 139.811,212.186 140.087 C 212.436 140.241,212.512 140.179,212.364 139.940 C 212.223 139.711,212.390 138.422,212.735 137.074 C 213.460 134.246,213.247 131.587,212.087 128.961 C 211.673 128.025,211.448 127.075,211.587 126.850 C 211.730 126.619,211.652 126.557,211.408 126.708 C 211.009 126.955,210.006 125.650,209.975 124.842 C 209.967 124.648,209.658 124.444,209.287 124.390 C 208.374 124.256,206.601 122.826,206.935 122.492 C 207.082 122.345,206.872 122.351,206.467 122.507 C 205.916 122.718,205.811 122.659,206.051 122.272 C 206.261 121.931,206.220 121.848,205.928 122.028 C 205.685 122.178,204.571 122.029,203.453 121.697 C 201.038 120.980,198.439 120.960,196.289 121.641 M134.375 254.300 C 133.623 254.498,132.779 254.581,132.499 254.483 C 132.220 254.386,132.087 254.461,132.204 254.651 C 132.483 255.102,131.312 255.547,130.726 255.212 C 130.477 255.070,130.399 255.092,130.553 255.263 C 130.851 255.593,129.209 257.056,128.408 257.173 C 128.145 257.212,127.868 257.416,127.794 257.626 C 127.387 258.767,126.864 259.366,126.483 259.130 C 126.217 258.966,126.162 259.043,126.340 259.332 C 126.500 259.589,126.443 260.025,126.215 260.299 C 124.549 262.307,124.334 268.442,125.811 271.820 C 126.221 272.756,126.457 273.683,126.335 273.880 C 126.213 274.077,126.347 274.190,126.631 274.131 C 126.916 274.072,127.152 274.287,127.156 274.609 C 127.160 274.932,127.273 275.195,127.408 275.195 C 127.958 275.195,129.261 276.696,129.032 277.066 C 128.893 277.291,128.977 277.346,129.225 277.193 C 129.805 276.834,131.707 278.092,131.382 278.619 C 131.238 278.851,131.317 278.911,131.564 278.758 C 131.804 278.610,132.884 278.779,133.966 279.133 C 136.654 280.012,140.592 279.748,143.164 278.516 C 144.238 278.001,145.335 277.595,145.601 277.613 C 145.868 277.631,146.006 277.517,145.908 277.359 C 145.631 276.911,147.862 274.953,148.269 275.287 C 148.469 275.452,148.510 275.434,148.360 275.248 C 148.210 275.062,148.516 274.088,149.041 273.084 C 150.952 269.429,151.080 264.582,149.354 261.219 C 149.047 260.622,148.918 259.936,149.068 259.694 C 149.223 259.443,149.165 259.362,148.933 259.506 C 148.448 259.805,147.634 258.916,147.490 257.930 C 147.433 257.543,147.227 257.221,147.033 257.214 C 146.839 257.207,145.361 256.544,143.750 255.741 C 140.568 254.155,136.999 253.606,134.375 254.300 M258.491 254.447 C 258.617 254.651,258.346 254.714,257.873 254.590 C 257.409 254.469,257.117 254.511,257.224 254.683 C 257.484 255.103,256.288 255.538,255.764 255.214 C 255.535 255.073,255.454 255.128,255.582 255.337 C 255.711 255.545,255.299 256.022,254.666 256.396 C 254.033 256.770,253.516 256.950,253.516 256.797 C 253.516 256.645,253.168 256.834,252.744 257.218 C 252.319 257.603,252.045 258.036,252.135 258.182 C 252.390 258.594,250.954 260.589,250.634 260.269 C 250.477 260.113,250.476 260.316,250.632 260.721 C 250.793 261.140,250.760 261.361,250.555 261.234 C 250.357 261.112,250.145 261.479,250.083 262.049 C 249.870 264.002,249.774 271.450,249.964 271.260 C 250.279 270.945,251.564 273.901,251.298 274.331 C 251.160 274.553,251.242 274.612,251.483 274.463 C 251.888 274.213,252.611 275.114,252.696 275.977 C 252.717 276.191,252.866 276.373,253.027 276.381 C 253.793 276.417,255.070 277.431,254.833 277.814 C 254.687 278.052,254.740 278.138,254.953 278.007 C 255.165 277.876,256.379 278.196,257.650 278.719 C 260.609 279.935,264.365 280.015,267.244 278.921 C 268.354 278.499,269.415 278.248,269.602 278.364 C 269.788 278.479,269.893 278.341,269.834 278.056 C 269.775 277.772,269.990 277.536,270.313 277.532 C 270.635 277.527,270.953 277.352,271.020 277.141 C 271.233 276.467,272.759 275.017,273.060 275.203 C 273.219 275.302,273.325 275.076,273.296 274.703 C 273.266 274.327,273.473 274.071,273.760 274.131 C 274.044 274.190,274.174 274.071,274.048 273.867 C 273.766 273.412,274.617 271.443,274.994 271.676 C 275.143 271.768,275.265 269.572,275.265 266.797 C 275.265 263.503,275.128 261.835,274.871 261.994 C 274.632 262.141,274.578 261.973,274.734 261.567 C 274.875 261.199,274.836 260.993,274.646 261.110 C 274.202 261.385,273.745 260.216,274.083 259.670 C 274.224 259.441,274.157 259.367,273.933 259.506 C 273.442 259.809,272.498 258.774,272.809 258.272 C 273.065 257.857,271.725 256.530,271.389 256.866 C 271.052 257.204,269.112 255.831,269.360 255.430 C 269.476 255.242,269.270 255.203,268.902 255.344 C 268.450 255.518,268.322 255.454,268.511 255.149 C 268.699 254.844,268.572 254.780,268.120 254.954 C 267.749 255.096,267.549 255.050,267.672 254.852 C 267.923 254.446,266.960 254.336,261.848 254.187 C 259.710 254.125,258.357 254.230,258.491 254.447 M248.927 266.602 C 248.931 267.461,249.011 267.767,249.104 267.281 C 249.198 266.795,249.194 266.092,249.097 265.718 C 248.999 265.345,248.922 265.742,248.927 266.602 " stroke="none" fill="#7494fc" fill-rule="evenodd"></path><path id="path2" d="M195.430 121.407 C 181.431 126.406,184.992 147.200,199.867 147.315 C 211.870 147.407,218.088 133.729,209.982 125.063 C 206.461 121.299,200.164 119.717,195.430 121.407 M204.035 121.883 C 210.673 123.933,214.427 130.469,212.743 137.042 C 209.057 151.431,188.104 149.450,187.218 134.629 C 186.656 125.218,194.814 119.035,204.035 121.883 M133.234 254.132 C 120.126 258.916,121.759 277.192,135.549 280.040 C 147.740 282.558,156.080 267.068,147.482 257.876 C 144.094 254.254,137.586 252.543,133.234 254.132 M258.439 254.134 C 243.925 258.767,247.442 280.290,262.695 280.181 C 274.265 280.099,280.325 266.492,272.575 257.997 C 269.158 254.252,263.184 252.619,258.439 254.134 M143.626 255.664 C 155.949 261.741,150.865 280.405,137.109 279.591 C 122.399 278.720,120.055 257.885,134.265 254.309 C 136.972 253.627,140.545 254.145,143.626 255.664 M265.968 254.475 C 280.714 258.400,277.346 280.308,262.101 279.624 C 255.085 279.309,250.240 274.675,249.719 267.780 C 249.021 258.562,256.945 252.073,265.968 254.475 " stroke="none" fill="#80acfb" fill-rule="evenodd"></path><path id="path3" d="M206.285 70.117 C 206.285 70.332,206.709 71.299,207.227 72.266 C 207.744 73.232,208.168 73.848,208.168 73.633 C 208.168 73.418,207.744 72.451,207.227 71.484 C 206.709 70.518,206.285 69.902,206.285 70.117 M192.069 76.763 C 191.711 77.512,191.499 78.125,191.598 78.125 C 191.865 78.125,193.051 75.733,192.872 75.555 C 192.787 75.470,192.426 76.013,192.069 76.763 M212.500 83.353 C 212.500 83.772,213.662 85.938,213.887 85.938 C 213.995 85.938,213.792 85.366,213.437 84.668 C 212.712 83.242,212.500 82.945,212.500 83.353 M217.996 94.727 C 217.996 94.941,218.248 95.557,218.555 96.094 C 218.862 96.631,219.113 96.895,219.113 96.680 C 219.113 96.465,218.862 95.850,218.555 95.313 C 218.248 94.775,217.996 94.512,217.996 94.727 M237.528 135.352 C 237.528 135.566,237.779 136.182,238.086 136.719 C 238.393 137.256,238.644 137.520,238.644 137.305 C 238.644 137.090,238.393 136.475,238.086 135.938 C 237.779 135.400,237.528 135.137,237.528 135.352 M204.720 184.180 C 204.720 184.395,205.057 185.186,205.469 185.938 C 205.880 186.689,206.217 187.129,206.217 186.914 C 206.217 186.699,205.880 185.908,205.469 185.156 C 205.057 184.404,204.720 183.965,204.720 184.180 M194.406 188.885 C 193.488 190.810,193.617 191.137,194.577 189.319 C 195.012 188.493,195.300 187.748,195.215 187.663 C 195.131 187.579,194.767 188.129,194.406 188.885 M191.470 194.743 C 190.815 196.180,190.940 196.486,191.648 195.180 C 191.978 194.570,192.176 193.998,192.086 193.909 C 191.997 193.820,191.719 194.195,191.470 194.743 M268.778 200.195 C 268.778 200.410,269.029 201.025,269.336 201.563 C 269.643 202.100,269.894 202.363,269.894 202.148 C 269.894 201.934,269.643 201.318,269.336 200.781 C 269.029 200.244,268.778 199.980,268.778 200.195 M212.891 200.931 C 212.891 201.350,214.053 203.516,214.278 203.516 C 214.385 203.516,214.183 202.944,213.828 202.246 C 213.102 200.820,212.891 200.523,212.891 200.931 M215.653 206.445 C 215.653 206.660,215.904 207.275,216.211 207.813 C 216.518 208.350,216.769 208.613,216.769 208.398 C 216.769 208.184,216.518 207.568,216.211 207.031 C 215.904 206.494,215.653 206.230,215.653 206.445 M217.850 211.128 C 218.207 211.877,218.569 212.421,218.654 212.336 C 218.832 212.157,217.646 209.766,217.379 209.766 C 217.281 209.766,217.492 210.379,217.850 211.128 M181.817 214.099 C 181.474 214.763,181.262 215.376,181.346 215.461 C 181.431 215.546,181.793 215.002,182.150 214.253 C 182.954 212.568,182.675 212.439,181.817 214.099 M278.158 220.117 C 278.158 220.332,278.495 221.123,278.906 221.875 C 279.318 222.627,279.655 223.066,279.655 222.852 C 279.655 222.637,279.318 221.846,278.906 221.094 C 278.495 220.342,278.158 219.902,278.158 220.117 M223.633 223.047 C 223.966 223.691,224.327 224.219,224.434 224.219 C 224.542 224.219,224.357 223.691,224.023 223.047 C 223.690 222.402,223.330 221.875,223.222 221.875 C 223.115 221.875,223.300 222.402,223.633 223.047 M175.662 226.372 C 175.305 227.121,175.093 227.734,175.192 227.734 C 175.459 227.734,176.645 225.343,176.466 225.164 C 176.381 225.079,176.020 225.623,175.662 226.372 M224.093 242.792 C 223.176 244.716,223.305 245.043,224.264 243.225 C 224.700 242.399,224.987 241.654,224.903 241.570 C 224.818 241.485,224.454 242.035,224.093 242.792 M219.803 251.763 C 219.446 252.512,219.234 253.125,219.332 253.125 C 219.600 253.125,220.785 250.733,220.607 250.555 C 220.522 250.470,220.160 251.013,219.803 251.763 M183.236 256.445 C 183.236 256.660,183.573 257.451,183.984 258.203 C 184.396 258.955,184.733 259.395,184.733 259.180 C 184.733 258.965,184.396 258.174,183.984 257.422 C 183.573 256.670,183.236 256.230,183.236 256.445 M216.583 258.239 C 216.239 258.904,216.027 259.517,216.112 259.602 C 216.197 259.686,216.559 259.143,216.916 258.394 C 217.719 256.709,217.441 256.580,216.583 258.239 M296.903 259.570 C 296.903 259.785,297.154 260.400,297.461 260.938 C 297.768 261.475,298.019 261.738,298.019 261.523 C 298.019 261.309,297.768 260.693,297.461 260.156 C 297.154 259.619,296.903 259.355,296.903 259.570 M215.363 263.867 C 215.364 265.371,215.435 265.938,215.519 265.128 C 215.604 264.318,215.603 263.087,215.516 262.394 C 215.430 261.700,215.361 262.363,215.363 263.867 M185.645 263.867 C 185.650 264.727,185.730 265.032,185.823 264.546 C 185.917 264.060,185.913 263.357,185.815 262.984 C 185.717 262.610,185.641 263.008,185.645 263.867 M185.010 266.846 C 184.684 268.474,185.000 268.790,185.352 267.188 C 185.500 266.512,185.540 265.878,185.440 265.779 C 185.341 265.679,185.147 266.159,185.010 266.846 M216.016 268.118 C 216.016 268.538,217.178 270.703,217.403 270.703 C 217.510 270.703,217.308 270.132,216.953 269.434 C 216.227 268.008,216.016 267.710,216.016 268.118 M218.324 272.200 C 218.535 272.594,219.014 273.165,219.389 273.470 C 219.811 273.812,219.717 273.539,219.142 272.754 C 218.116 271.352,217.731 271.092,218.324 272.200 M221.059 275.716 C 221.269 276.109,221.749 276.681,222.124 276.985 C 222.546 277.328,222.451 277.055,221.876 276.270 C 220.850 274.868,220.466 274.607,221.059 275.716 M272.436 276.270 L 271.289 277.539 272.559 276.392 C 273.257 275.761,273.828 275.189,273.828 275.122 C 273.828 274.820,273.506 275.086,272.436 276.270 M223.793 279.231 C 224.004 279.625,224.483 280.196,224.858 280.501 C 225.280 280.844,225.186 280.571,224.611 279.785 C 223.585 278.384,223.200 278.123,223.793 279.231 M230.640 288.019 C 231.241 288.808,231.812 289.453,231.909 289.453 C 232.180 289.453,230.489 287.168,229.989 286.859 C 229.745 286.708,230.038 287.230,230.640 288.019 M233.202 291.309 C 233.713 292.007,234.192 292.578,234.267 292.578 C 234.564 292.578,233.595 291.113,232.954 290.593 C 232.532 290.250,232.627 290.523,233.202 291.309 M245.483 307.160 C 246.085 307.948,246.656 308.594,246.753 308.594 C 247.024 308.594,245.333 306.309,244.833 306.000 C 244.589 305.849,244.882 306.371,245.483 307.160 M76.047 317.010 C 75.129 318.935,75.258 319.262,76.217 317.444 C 76.653 316.618,76.941 315.873,76.856 315.788 C 76.772 315.704,76.407 316.254,76.047 317.010 M142.133 323.340 C 141.009 324.697,140.533 325.391,140.726 325.391 C 140.834 325.391,141.392 324.775,141.966 324.023 C 143.030 322.628,143.159 322.101,142.133 323.340 M328.158 325.195 C 328.158 325.410,328.495 326.201,328.906 326.953 C 329.318 327.705,329.655 328.145,329.655 327.930 C 329.655 327.715,329.318 326.924,328.906 326.172 C 328.495 325.420,328.158 324.980,328.158 325.195 M138.494 327.946 C 137.831 328.448,133.300 328.511,104.216 328.422 C 85.784 328.366,70.703 328.452,70.703 328.613 C 70.703 329.417,138.135 328.934,138.867 328.125 C 139.699 327.206,139.560 327.140,138.494 327.946 M261.486 328.027 L 262.230 328.906 296.057 328.811 L 329.883 328.715 296.122 328.613 C 264.668 328.518,262.306 328.465,261.552 327.830 C 260.743 327.149,260.743 327.150,261.486 328.027 " stroke="none" fill="#242490" fill-rule="evenodd"></path><path id="path4" d="M200.621 58.537 C 200.064 59.439,199.666 60.938,199.983 60.938 C 200.178 60.938,200.450 60.586,200.586 60.156 C 200.722 59.727,201.008 59.375,201.221 59.375 C 201.434 59.375,201.500 59.551,201.367 59.766 C 201.234 59.980,201.331 60.156,201.581 60.156 C 201.836 60.156,201.932 59.884,201.800 59.538 C 201.669 59.199,201.563 58.759,201.563 58.562 C 201.563 58.109,200.896 58.092,200.621 58.537 M197.915 64.522 C 197.049 66.727,197.311 66.797,198.359 64.640 C 198.826 63.678,199.062 62.891,198.882 62.891 C 198.703 62.891,198.268 63.625,197.915 64.522 M208.831 75.944 C 208.961 76.284,209.240 76.563,209.449 76.563 C 209.963 76.563,209.641 75.675,209.057 75.480 C 208.772 75.385,208.685 75.563,208.831 75.944 M190.820 79.297 C 190.487 79.941,190.302 80.469,190.410 80.469 C 190.517 80.469,190.878 79.941,191.211 79.297 C 191.544 78.652,191.729 78.125,191.622 78.125 C 191.514 78.125,191.154 78.652,190.820 79.297 M210.547 79.474 C 210.547 79.981,211.500 81.641,211.791 81.641 C 211.977 81.641,211.857 81.113,211.523 80.469 C 210.983 79.423,210.547 78.979,210.547 79.474 M183.323 94.531 C 182.785 95.955,183.286 96.103,183.922 94.708 C 184.457 93.534,184.476 93.359,184.070 93.359 C 183.902 93.359,183.566 93.887,183.323 94.531 M181.724 97.852 C 181.254 98.818,180.999 99.601,181.157 99.592 C 181.518 99.569,183.182 96.094,182.833 96.094 C 182.692 96.094,182.193 96.885,181.724 97.852 M178.599 104.102 C 178.129 105.068,177.883 105.859,178.052 105.859 C 178.221 105.859,178.744 105.068,179.214 104.102 C 179.684 103.135,179.930 102.344,179.760 102.344 C 179.591 102.344,179.068 103.135,178.599 104.102 M222.379 104.199 C 222.657 104.790,223.229 106.019,223.649 106.930 C 224.070 107.841,224.532 108.588,224.676 108.590 C 224.820 108.592,224.380 107.364,223.699 105.861 C 223.018 104.359,222.329 103.128,222.167 103.127 C 222.005 103.126,222.100 103.608,222.379 104.199 M175.586 110.547 C 175.042 111.621,174.684 112.500,174.792 112.500 C 174.899 112.500,175.432 111.621,175.977 110.547 C 176.521 109.473,176.878 108.594,176.771 108.594 C 176.664 108.594,176.130 109.473,175.586 110.547 M172.540 116.602 C 172.181 117.354,172.028 117.969,172.200 117.969 C 172.371 117.969,172.805 117.354,173.164 116.602 C 173.522 115.850,173.675 115.234,173.504 115.234 C 173.332 115.234,172.898 115.850,172.540 116.602 M196.973 120.370 C 195.845 120.586,194.922 120.921,194.922 121.114 C 194.922 121.314,195.353 121.301,195.924 121.084 C 197.426 120.513,202.416 120.625,204.248 121.272 C 205.134 121.584,205.859 121.700,205.859 121.529 C 205.859 120.574,199.941 119.802,196.973 120.370 M206.271 121.759 C 206.283 121.930,207.181 122.656,208.267 123.372 C 209.353 124.088,210.126 124.486,209.984 124.256 C 209.610 123.651,206.246 121.388,206.271 121.759 M168.810 124.439 C 168.549 125.011,168.521 125.337,168.745 125.198 C 169.318 124.844,170.007 123.438,169.608 123.438 C 169.420 123.438,169.061 123.888,168.810 124.439 M233.094 126.498 C 234.402 129.082,234.970 129.478,233.906 127.064 C 233.412 125.944,232.821 124.952,232.593 124.859 C 232.365 124.766,232.590 125.504,233.094 126.498 M186.539 129.758 C 186.208 130.872,185.958 132.410,185.983 133.176 C 186.022 134.367,186.079 134.270,186.372 132.512 C 186.560 131.380,186.970 129.842,187.283 129.094 C 187.595 128.346,187.691 127.734,187.495 127.734 C 187.300 127.734,186.869 128.645,186.539 129.758 M165.745 130.859 C 165.501 131.504,165.370 132.031,165.454 132.031 C 165.537 132.031,165.878 131.504,166.211 130.859 C 166.544 130.215,166.675 129.688,166.502 129.688 C 166.329 129.688,165.988 130.215,165.745 130.859 M213.667 133.123 L 213.857 135.742 213.981 133.439 C 214.049 132.172,213.964 130.994,213.791 130.820 C 213.618 130.647,213.562 131.683,213.667 133.123 M235.575 131.250 C 235.584 131.965,237.458 135.540,237.482 134.890 C 237.492 134.635,237.065 133.581,236.533 132.546 C 236.002 131.511,235.570 130.928,235.575 131.250 M163.112 136.377 C 162.233 138.575,162.548 138.665,163.593 136.515 C 164.061 135.553,164.289 134.766,164.100 134.766 C 163.911 134.766,163.467 135.491,163.112 136.377 M185.938 135.696 C 185.938 136.018,186.113 136.391,186.328 136.523 C 186.543 136.656,186.719 136.501,186.719 136.179 C 186.719 135.857,186.543 135.484,186.328 135.352 C 186.113 135.219,185.938 135.374,185.938 135.696 M213.124 138.152 C 212.452 140.122,212.517 140.959,213.202 139.173 C 213.827 137.546,214.138 136.328,213.930 136.328 C 213.829 136.328,213.466 137.149,213.124 138.152 M186.457 137.663 C 186.601 138.038,186.719 138.507,186.719 138.704 C 186.719 138.901,186.878 139.063,187.073 139.063 C 187.527 139.063,187.145 137.568,186.605 137.235 C 186.347 137.075,186.292 137.234,186.457 137.663 M189.063 142.423 C 189.063 142.639,189.678 143.412,190.430 144.141 C 191.182 144.869,191.791 145.299,191.784 145.096 C 191.767 144.589,189.063 141.932,189.063 142.423 M209.939 143.523 C 209.522 143.827,209.284 144.180,209.411 144.306 C 209.537 144.433,209.959 144.183,210.349 143.752 C 211.179 142.835,211.009 142.740,209.939 143.523 M206.261 146.078 C 205.945 146.278,205.782 146.538,205.899 146.654 C 206.016 146.771,206.450 146.611,206.864 146.297 C 207.688 145.674,207.188 145.493,206.261 146.078 M194.922 146.881 C 194.922 148.224,204.435 148.231,205.265 146.888 C 205.361 146.733,204.529 146.843,203.416 147.131 C 200.833 147.801,199.023 147.795,196.742 147.109 C 195.741 146.807,194.922 146.705,194.922 146.881 M243.041 147.463 C 243.286 148.001,243.562 148.365,243.654 148.273 C 243.930 147.997,243.335 146.484,242.951 146.484 C 242.755 146.484,242.795 146.925,243.041 147.463 M156.384 150.198 C 156.136 150.734,156.064 151.172,156.224 151.172 C 156.384 151.172,156.715 150.732,156.960 150.195 C 157.205 149.658,157.277 149.220,157.121 149.222 C 156.964 149.223,156.633 149.663,156.384 150.198 M153.906 155.469 C 153.256 156.758,152.901 157.813,153.119 157.813 C 153.337 157.813,153.516 157.746,153.516 157.666 C 153.516 157.585,153.953 156.530,154.487 155.322 C 155.773 152.416,155.400 152.510,153.906 155.469 M254.690 171.122 C 254.689 171.244,255.032 172.035,255.453 172.879 C 255.874 173.723,256.225 174.150,256.232 173.828 C 256.239 173.506,255.896 172.715,255.469 172.070 C 255.042 171.426,254.691 170.999,254.690 171.122 M200.428 176.883 C 200.132 177.437,200.114 177.734,200.377 177.734 C 200.599 177.734,200.799 177.427,200.820 177.051 C 200.846 176.603,200.951 176.694,201.124 177.315 C 201.270 177.836,201.608 178.306,201.876 178.360 C 202.144 178.413,202.182 178.367,201.960 178.258 C 201.739 178.148,201.641 177.923,201.743 177.759 C 201.845 177.594,201.693 177.138,201.406 176.745 C 200.907 176.062,200.864 176.069,200.428 176.883 M258.275 178.713 C 258.520 179.251,258.796 179.615,258.888 179.523 C 259.164 179.247,258.569 177.734,258.185 177.734 C 257.989 177.734,258.030 178.175,258.275 178.713 M196.555 184.570 C 196.311 185.107,196.254 185.547,196.430 185.547 C 196.606 185.547,196.950 185.107,197.195 184.570 C 197.439 184.033,197.496 183.594,197.320 183.594 C 197.144 183.594,196.800 184.033,196.555 184.570 M137.974 188.477 C 137.504 189.443,137.258 190.234,137.427 190.234 C 137.596 190.234,138.119 189.443,138.589 188.477 C 139.059 187.510,139.305 186.719,139.135 186.719 C 138.966 186.719,138.443 187.510,137.974 188.477 M207.440 189.877 C 207.680 190.325,207.954 190.614,208.049 190.519 C 208.322 190.246,207.768 189.063,207.366 189.063 C 207.167 189.063,207.200 189.429,207.440 189.877 M264.775 192.184 C 265.135 193.041,265.565 193.744,265.731 193.746 C 265.896 193.748,265.673 193.047,265.234 192.188 C 264.207 190.174,263.930 190.172,264.775 192.184 M134.766 195.313 C 134.327 196.172,134.056 196.875,134.164 196.875 C 134.271 196.875,134.718 196.172,135.156 195.313 C 135.595 194.453,135.865 193.750,135.758 193.750 C 135.651 193.750,135.204 194.453,134.766 195.313 M130.918 203.125 C 130.693 203.770,130.637 204.297,130.794 204.297 C 130.951 204.297,131.278 203.770,131.521 203.125 C 131.764 202.480,131.820 201.953,131.645 201.953 C 131.470 201.953,131.143 202.480,130.918 203.125 M270.490 203.711 C 270.656 204.141,270.880 204.800,270.988 205.176 C 271.096 205.552,271.345 205.859,271.540 205.859 C 271.735 205.859,271.605 205.288,271.249 204.590 C 270.489 203.095,270.060 202.598,270.490 203.711 M186.009 205.664 C 185.764 206.201,185.707 206.641,185.883 206.641 C 186.059 206.641,186.403 206.201,186.648 205.664 C 186.892 205.127,186.949 204.688,186.773 204.688 C 186.597 204.688,186.253 205.127,186.009 205.664 M127.805 209.570 C 127.561 210.107,127.504 210.547,127.680 210.547 C 127.856 210.547,128.200 210.107,128.445 209.570 C 128.689 209.033,128.746 208.594,128.570 208.594 C 128.394 208.594,128.050 209.033,127.805 209.570 M180.161 217.383 C 179.691 218.350,179.445 219.141,179.615 219.141 C 179.784 219.141,180.307 218.350,180.776 217.383 C 181.246 216.416,181.492 215.625,181.323 215.625 C 181.154 215.625,180.631 216.416,180.161 217.383 M177.794 222.095 C 177.533 222.667,177.506 222.993,177.729 222.855 C 178.303 222.500,178.992 221.094,178.592 221.094 C 178.404 221.094,178.045 221.544,177.794 222.095 M280.540 225.586 C 280.785 226.123,281.129 226.563,281.304 226.563 C 281.480 226.563,281.424 226.123,281.179 225.586 C 280.934 225.049,280.590 224.609,280.414 224.609 C 280.239 224.609,280.295 225.049,280.540 225.586 M174.490 228.538 C 174.318 229.197,174.380 229.259,174.835 228.881 C 175.457 228.365,175.572 227.734,175.046 227.734 C 174.856 227.734,174.606 228.096,174.490 228.538 M282.871 230.469 C 283.096 231.113,283.443 231.641,283.642 231.641 C 283.841 231.641,283.732 231.113,283.398 230.469 C 283.065 229.824,282.718 229.297,282.627 229.297 C 282.537 229.297,282.646 229.824,282.871 230.469 M228.320 233.398 C 228.320 233.936,228.452 234.375,228.613 234.375 C 228.774 234.375,228.906 233.936,228.906 233.398 C 228.906 232.861,228.774 232.422,228.613 232.422 C 228.452 232.422,228.320 232.861,228.320 233.398 M116.147 233.855 C 116.290 233.999,116.117 234.438,115.761 234.832 C 115.405 235.225,115.272 235.550,115.467 235.553 C 115.661 235.556,115.557 235.729,115.234 235.938 C 114.860 236.179,114.821 236.318,115.127 236.322 C 115.390 236.325,115.873 235.810,116.201 235.176 C 116.917 233.791,116.934 233.594,116.341 233.594 C 116.090 233.594,116.003 233.711,116.147 233.855 M225.474 240.013 C 224.791 241.512,224.894 242.204,225.599 240.853 C 225.926 240.226,226.138 239.547,226.070 239.343 C 226.002 239.140,225.734 239.442,225.474 240.013 M112.571 241.211 C 112.326 241.748,112.270 242.188,112.446 242.188 C 112.621 242.188,112.965 241.748,113.210 241.211 C 113.455 240.674,113.511 240.234,113.336 240.234 C 113.160 240.234,112.816 240.674,112.571 241.211 M180.350 250.581 C 180.707 251.330,181.057 251.886,181.126 251.816 C 181.369 251.573,180.390 249.219,180.046 249.219 C 179.856 249.219,179.992 249.832,180.350 250.581 M292.509 250.777 C 292.869 251.634,293.299 252.338,293.465 252.340 C 293.630 252.342,293.407 251.641,292.969 250.781 C 291.942 248.768,291.665 248.765,292.509 250.777 M219.239 252.542 C 219.401 252.721,219.242 253.188,218.886 253.582 C 218.530 253.975,218.399 254.297,218.595 254.297 C 219.273 254.297,219.961 252.802,219.426 252.495 C 219.161 252.343,219.078 252.364,219.239 252.542 M132.910 253.594 C 132.212 253.828,131.641 254.149,131.641 254.308 C 131.641 254.466,132.388 254.336,133.301 254.018 C 135.836 253.135,140.779 253.496,143.314 254.751 C 144.413 255.295,145.313 255.613,145.313 255.457 C 145.313 253.938,136.041 252.546,132.910 253.594 M257.910 253.590 C 257.212 253.826,256.641 254.149,256.641 254.308 C 256.641 254.466,257.388 254.338,258.301 254.022 C 261.123 253.046,265.732 253.458,268.756 254.958 C 270.139 255.643,271.336 256.138,271.417 256.057 C 271.497 255.977,270.447 255.339,269.082 254.640 C 266.334 253.232,260.573 252.691,257.910 253.590 M255.245 254.874 C 254.831 255.188,254.668 255.447,254.883 255.450 C 255.463 255.460,256.455 254.763,256.210 254.517 C 256.093 254.401,255.659 254.561,255.245 254.874 M295.298 256.614 C 295.521 257.030,295.883 257.845,296.104 258.426 C 296.325 259.008,296.587 259.402,296.686 259.303 C 296.963 259.027,295.632 255.859,295.240 255.859 C 295.050 255.859,295.076 256.199,295.298 256.614 M273.523 258.398 C 273.911 259.522,274.777 260.938,275.076 260.938 C 275.264 260.938,275.249 260.630,275.042 260.254 C 274.553 259.363,273.349 257.892,273.523 258.398 M249.578 261.395 C 248.157 264.429,248.217 269.291,249.713 272.266 C 250.804 274.437,250.792 274.144,249.673 271.289 C 248.726 268.875,248.855 263.935,249.926 261.561 C 250.402 260.507,250.731 259.585,250.657 259.511 C 250.583 259.437,250.098 260.285,249.578 261.395 M150.690 263.100 C 151.011 264.075,151.351 264.795,151.445 264.701 C 151.694 264.452,150.709 261.328,150.382 261.328 C 150.231 261.328,150.370 262.126,150.690 263.100 M275.484 262.598 C 275.713 263.296,275.965 264.112,276.045 264.411 C 276.125 264.711,276.265 264.881,276.356 264.789 C 276.622 264.524,275.718 261.328,275.377 261.328 C 275.207 261.328,275.255 261.899,275.484 262.598 M185.417 261.979 C 185.059 262.337,185.087 265.536,185.449 265.760 C 185.610 265.860,185.742 264.991,185.742 263.830 C 185.742 262.669,185.728 261.719,185.710 261.719 C 185.692 261.719,185.560 261.836,185.417 261.979 M102.024 263.086 C 101.779 263.623,101.723 264.063,101.899 264.063 C 102.075 264.063,102.419 263.623,102.663 263.086 C 102.908 262.549,102.964 262.109,102.789 262.109 C 102.613 262.109,102.269 262.549,102.024 263.086 M214.934 263.672 C 214.934 264.424,215.015 264.731,215.113 264.355 C 215.211 263.979,215.211 263.364,215.113 262.988 C 215.015 262.612,214.934 262.920,214.934 263.672 M123.702 264.871 C 123.350 267.844,124.755 273.828,125.805 273.828 C 125.968 273.828,125.726 273.081,125.268 272.168 C 124.592 270.820,124.433 269.792,124.425 266.701 C 124.413 262.570,124.076 261.716,123.702 264.871 M276.263 266.406 C 276.263 267.158,276.343 267.466,276.441 267.090 C 276.539 266.714,276.539 266.099,276.441 265.723 C 276.343 265.347,276.263 265.654,276.263 266.406 M151.244 267.253 C 151.204 268.256,151.058 269.399,150.919 269.792 C 150.727 270.336,150.779 270.404,151.137 270.075 C 151.431 269.805,151.553 268.854,151.462 267.536 L 151.316 265.430 151.244 267.253 M100.256 266.877 C 99.939 268.091,100.181 268.153,100.709 266.994 C 100.955 266.456,101.004 266.016,100.818 266.016 C 100.633 266.016,100.380 266.403,100.256 266.877 M275.535 270.940 C 275.389 271.347,275.199 271.812,275.112 271.973 C 275.025 272.134,275.120 272.266,275.322 272.266 C 275.712 272.266,276.261 270.662,275.970 270.371 C 275.876 270.277,275.681 270.533,275.535 270.940 M97.337 272.850 C 97.092 273.388,97.043 273.828,97.228 273.828 C 97.553 273.828,98.137 272.226,97.900 271.988 C 97.836 271.924,97.583 272.312,97.337 272.850 M250.781 274.732 C 250.781 274.799,251.341 275.370,252.026 276.001 L 253.270 277.148 252.319 275.901 C 251.510 274.840,250.781 274.286,250.781 274.732 M147.258 276.377 C 146.503 277.286,147.042 277.458,147.849 276.565 C 148.239 276.134,148.377 275.781,148.155 275.781 C 147.933 275.781,147.530 276.049,147.258 276.377 M254.291 278.107 C 254.825 278.517,255.339 278.775,255.434 278.680 C 255.655 278.459,254.228 277.370,253.711 277.365 C 253.496 277.363,253.757 277.697,254.291 278.107 M269.828 278.240 C 269.024 278.714,268.365 279.243,268.363 279.417 C 268.359 279.790,270.584 278.535,271.172 277.832 C 271.721 277.175,271.540 277.230,269.828 278.240 M257.422 279.701 C 257.422 280.040,261.276 281.042,261.545 280.773 C 261.641 280.676,260.753 280.328,259.571 280.000 C 258.389 279.671,257.422 279.536,257.422 279.701 M140.039 280.315 L 138.477 280.839 140.039 280.619 C 141.593 280.400,142.075 280.209,141.764 279.935 C 141.675 279.856,140.898 280.027,140.039 280.315 M264.453 280.331 L 262.305 280.835 264.446 280.626 C 265.624 280.512,266.664 280.341,266.757 280.248 C 267.169 279.837,266.452 279.862,264.453 280.331 M135.156 280.469 C 135.479 280.677,136.094 280.838,136.523 280.826 L 137.305 280.804 136.523 280.469 C 135.356 279.967,134.380 279.967,135.156 280.469 M173.986 282.479 C 173.246 283.312,173.247 283.314,174.121 282.856 C 174.604 282.602,175.000 282.225,175.000 282.018 C 175.000 281.463,174.813 281.548,173.986 282.479 M226.760 283.206 C 227.150 283.637,227.554 283.904,227.657 283.801 C 227.920 283.538,226.946 282.422,226.454 282.422 C 226.232 282.422,226.370 282.775,226.760 283.206 M91.099 285.742 C 90.629 286.709,90.383 287.500,90.552 287.500 C 90.721 287.500,91.244 286.709,91.714 285.742 C 92.184 284.775,92.430 283.984,92.260 283.984 C 92.091 283.984,91.568 284.775,91.099 285.742 M88.743 290.430 C 88.498 290.967,88.442 291.406,88.618 291.406 C 88.793 291.406,89.137 290.967,89.382 290.430 C 89.627 289.893,89.683 289.453,89.507 289.453 C 89.332 289.453,88.988 289.893,88.743 290.430 M311.833 291.391 C 312.073 292.028,312.330 292.488,312.404 292.414 C 312.647 292.170,312.031 290.234,311.710 290.234 C 311.537 290.234,311.593 290.755,311.833 291.391 M234.373 292.599 C 234.619 293.148,235.204 293.830,235.672 294.115 C 236.453 294.591,236.443 294.541,235.553 293.508 C 235.019 292.889,234.434 292.207,234.253 291.992 C 234.073 291.777,234.126 292.050,234.373 292.599 M85.742 296.875 C 85.409 297.520,85.299 298.047,85.499 298.047 C 85.698 298.047,86.045 297.520,86.270 296.875 C 86.494 296.230,86.604 295.703,86.513 295.703 C 86.422 295.703,86.075 296.230,85.742 296.875 M161.553 298.488 C 161.139 298.890,160.986 299.219,161.212 299.219 C 161.663 299.219,162.704 298.110,162.458 297.893 C 162.374 297.818,161.966 298.086,161.553 298.488 M84.258 299.805 C 83.900 300.557,83.747 301.172,83.918 301.172 C 84.090 301.172,84.524 300.557,84.882 299.805 C 85.241 299.053,85.394 298.438,85.222 298.438 C 85.051 298.438,84.617 299.053,84.258 299.805 M315.934 299.430 C 315.654 299.711,318.024 304.688,318.439 304.688 C 318.616 304.688,318.196 303.589,317.506 302.246 C 316.816 300.903,316.286 299.673,316.329 299.512 C 316.420 299.168,316.234 299.130,315.934 299.430 M158.594 302.148 C 158.318 302.481,158.180 302.841,158.287 302.949 C 158.395 303.056,158.708 302.872,158.984 302.539 C 159.260 302.206,159.398 301.846,159.291 301.739 C 159.184 301.632,158.870 301.816,158.594 302.148 M82.493 303.320 C 82.248 303.857,82.192 304.297,82.368 304.297 C 82.543 304.297,82.887 303.857,83.132 303.320 C 83.377 302.783,83.433 302.344,83.257 302.344 C 83.082 302.344,82.738 302.783,82.493 303.320 M155.469 306.055 C 155.197 306.382,155.155 306.641,155.373 306.641 C 155.588 306.641,155.983 306.377,156.250 306.055 C 156.521 305.728,156.564 305.469,156.346 305.469 C 156.131 305.469,155.736 305.732,155.469 306.055 M320.898 310.156 C 321.443 311.230,321.962 312.109,322.052 312.109 C 322.352 312.109,320.513 308.222,320.208 308.212 C 320.044 308.207,320.354 309.082,320.898 310.156 M150.939 311.776 C 150.200 312.608,150.201 312.611,151.052 312.164 C 152.002 311.666,152.587 310.938,152.037 310.938 C 151.842 310.938,151.349 311.315,150.939 311.776 M78.196 312.305 C 77.951 312.842,77.895 313.281,78.071 313.281 C 78.246 313.281,78.590 312.842,78.835 312.305 C 79.080 311.768,79.136 311.328,78.961 311.328 C 78.785 311.328,78.441 311.768,78.196 312.305 M250.391 313.794 C 250.391 313.861,250.948 314.433,251.629 315.064 L 252.868 316.211 251.993 314.941 C 251.275 313.899,250.391 313.266,250.391 313.794 M142.736 322.322 C 141.996 323.156,141.997 323.158,142.871 322.699 C 143.354 322.446,143.750 322.069,143.750 321.861 C 143.750 321.306,143.563 321.391,142.736 322.322 M71.875 325.391 C 71.875 325.605,71.890 325.893,71.908 326.031 C 71.927 326.168,71.707 326.429,71.420 326.611 C 71.050 326.845,71.037 326.943,71.373 326.947 C 71.634 326.950,72.029 326.613,72.252 326.198 C 72.758 325.253,72.760 325.000,72.266 325.000 C 72.051 325.000,71.875 325.176,71.875 325.391 M70.498 328.154 C 70.357 328.600,70.345 329.069,70.472 329.196 C 70.599 329.323,70.703 329.140,70.703 328.788 C 70.703 328.343,70.910 328.227,71.387 328.406 C 71.985 328.630,72.004 328.580,71.534 328.003 C 70.855 327.168,70.809 327.175,70.498 328.154 " stroke="none" fill="#3336b9" fill-rule="evenodd"></path></g></svg>