<svg id="svg" version="1.1" xmlns="http://www.w3.org/2000/svg" xmlns:xlink="http://www.w3.org/1999/xlink" width="400" height="400" viewBox="0, 0, 400,400"><g id="svgg"><path id="path0" d="M198.038 172.664 C 196.588 173.294,194.656 174.895,193.680 176.277 L 192.604 177.800 192.400 188.421 C 192.223 197.627,192.103 199.183,191.498 200.107 C 191.114 200.693,190.800 201.637,190.800 202.205 C 190.800 202.793,190.369 203.637,189.800 204.165 C 189.212 204.710,188.800 205.534,188.800 206.165 C 188.800 206.796,188.388 207.620,187.800 208.165 C 187.212 208.710,186.800 209.534,186.800 210.165 C 186.800 210.796,186.388 211.620,185.800 212.165 C 185.212 212.710,184.800 213.534,184.800 214.165 C 184.800 214.808,184.382 215.626,183.757 216.205 C 182.463 217.404,182.090 222.889,183.245 223.740 C 184.051 224.334,184.800 225.748,184.800 226.677 C 184.800 227.079,185.151 227.627,185.580 227.895 C 186.009 228.163,186.488 229.061,186.643 229.891 C 186.798 230.721,187.167 231.979,187.463 232.687 C 188.095 234.203,188.167 236.249,187.600 236.600 C 186.624 237.203,187.138 240.800,188.200 240.800 C 189.133 240.800,189.200 240.933,189.200 242.800 C 189.200 244.667,189.267 244.800,190.200 244.800 L 191.200 244.800 191.140 261.100 C 191.107 270.065,191.005 276.905,190.913 276.300 C 190.784 275.447,190.528 275.200,189.773 275.200 C 189.002 275.200,188.800 274.993,188.800 274.200 C 188.800 273.400,188.600 273.200,187.800 273.200 C 187.000 273.200,186.800 273.000,186.800 272.200 C 186.800 271.400,186.600 271.200,185.800 271.200 C 185.000 271.200,184.800 271.000,184.800 270.200 C 184.800 269.400,184.600 269.200,183.800 269.200 C 183.000 269.200,182.800 269.000,182.800 268.200 C 182.800 267.400,182.600 267.200,181.800 267.200 C 181.000 267.200,180.800 267.000,180.800 266.200 C 180.800 265.406,180.598 265.200,179.824 265.200 C 179.287 265.200,178.736 265.020,178.600 264.800 C 178.464 264.580,177.576 264.400,176.626 264.400 C 174.948 264.400,174.758 264.258,169.917 259.400 C 167.177 256.650,164.670 254.400,164.345 254.400 C 164.021 254.400,163.181 253.976,162.479 253.459 C 160.703 252.148,157.642 252.410,156.078 254.006 C 154.906 255.202,152.800 259.054,152.800 260.000 C 152.800 260.813,154.889 264.929,155.500 265.320 C 155.775 265.496,156.000 265.842,156.000 266.089 C 156.000 266.337,159.214 269.745,163.142 273.663 L 170.285 280.787 170.799 283.793 C 171.269 286.540,171.395 286.800,172.257 286.800 C 172.996 286.800,173.200 287.016,173.200 287.800 C 173.200 288.600,173.400 288.800,174.200 288.800 C 175.000 288.800,175.200 289.000,175.200 289.800 C 175.200 290.600,175.400 290.800,176.200 290.800 C 177.000 290.800,177.200 291.000,177.200 291.800 C 177.200 292.600,177.400 292.800,178.200 292.800 C 179.000 292.800,179.200 293.000,179.200 293.800 C 179.200 294.600,179.400 294.800,180.200 294.800 C 181.000 294.800,181.200 295.000,181.200 295.800 C 181.200 296.600,181.400 296.800,182.200 296.800 C 183.000 296.800,183.200 297.000,183.200 297.800 C 183.200 298.600,183.400 298.800,184.200 298.800 C 185.000 298.800,185.200 299.000,185.200 299.800 C 185.200 300.600,185.400 300.800,186.200 300.800 C 187.000 300.800,187.200 301.000,187.200 301.800 C 187.200 302.600,187.400 302.800,188.200 302.800 C 189.000 302.800,189.200 303.000,189.200 303.800 C 189.200 304.600,189.400 304.800,190.200 304.800 C 191.000 304.800,191.200 305.000,191.200 305.800 C 191.200 306.600,191.400 306.800,192.200 306.800 C 193.000 306.800,193.200 307.000,193.200 307.800 C 193.200 308.600,193.400 308.800,194.200 308.800 C 195.000 308.800,195.200 309.000,195.200 309.800 C 195.200 310.600,195.400 310.800,196.200 310.800 C 197.000 310.800,197.200 311.000,197.200 311.800 C 197.200 312.771,197.280 312.800,200.000 312.800 C 202.720 312.800,202.800 312.771,202.800 311.800 C 202.800 311.000,203.000 310.800,203.800 310.800 C 204.600 310.800,204.800 310.600,204.800 309.800 C 204.800 309.000,205.000 308.800,205.800 308.800 C 206.600 308.800,206.800 308.600,206.800 307.800 C 206.800 307.000,207.000 306.800,207.800 306.800 C 208.600 306.800,208.800 306.600,208.800 305.800 C 208.800 305.000,209.000 304.800,209.800 304.800 C 210.600 304.800,210.800 304.600,210.800 303.800 C 210.800 303.000,211.000 302.800,211.800 302.800 C 212.600 302.800,212.800 302.600,212.800 301.800 C 212.800 301.000,213.000 300.800,213.800 300.800 C 214.600 300.800,214.800 300.600,214.800 299.800 C 214.800 299.000,215.000 298.800,215.800 298.800 C 216.600 298.800,216.800 298.600,216.800 297.800 C 216.800 297.000,217.000 296.800,217.800 296.800 C 218.600 296.800,218.800 296.600,218.800 295.800 C 218.800 295.000,219.000 294.800,219.800 294.800 C 220.600 294.800,220.800 294.600,220.800 293.800 C 220.800 293.000,221.000 292.800,221.800 292.800 C 222.600 292.800,222.800 292.600,222.800 291.800 C 222.800 291.000,223.000 290.800,223.800 290.800 C 224.600 290.800,224.800 290.600,224.800 289.800 C 224.800 289.000,225.000 288.800,225.800 288.800 C 226.600 288.800,226.800 288.600,226.800 287.800 C 226.800 287.000,227.000 286.800,227.800 286.800 C 228.594 286.800,228.800 286.598,228.800 285.824 C 228.800 285.287,228.956 284.751,229.147 284.633 C 229.338 284.515,229.586 283.598,229.699 282.595 C 229.827 281.459,230.237 280.437,230.786 279.886 C 241.888 268.721,245.600 264.828,245.600 264.350 C 245.600 264.031,245.960 263.063,246.400 262.200 C 246.840 261.337,247.200 260.374,247.200 260.060 C 247.200 259.126,245.037 254.842,244.555 254.820 C 244.310 254.809,243.463 254.286,242.672 253.657 C 241.406 252.651,240.991 252.538,239.207 252.709 C 236.956 252.925,237.067 252.840,229.330 260.300 C 225.283 264.201,224.994 264.400,223.362 264.400 C 222.419 264.400,221.536 264.580,221.400 264.800 C 221.264 265.020,220.713 265.200,220.176 265.200 C 219.402 265.200,219.200 265.406,219.200 266.200 C 219.200 267.000,219.000 267.200,218.200 267.200 C 217.400 267.200,217.200 267.400,217.200 268.200 C 217.200 269.000,217.000 269.200,216.200 269.200 C 215.400 269.200,215.200 269.400,215.200 270.200 C 215.200 271.000,215.000 271.200,214.200 271.200 C 213.400 271.200,213.200 271.400,213.200 272.200 C 213.200 273.000,213.000 273.200,212.200 273.200 C 211.400 273.200,211.200 273.400,211.200 274.200 C 211.200 274.993,210.998 275.200,210.227 275.200 C 209.472 275.200,209.216 275.447,209.087 276.300 C 208.995 276.905,208.893 270.065,208.860 261.100 L 208.800 244.800 209.800 244.800 C 210.733 244.800,210.800 244.667,210.800 242.800 C 210.800 240.933,210.867 240.800,211.800 240.800 C 212.987 240.800,213.160 238.792,212.323 234.740 C 211.903 232.708,211.927 232.343,212.523 231.685 C 212.895 231.273,213.200 230.379,213.200 229.697 C 213.200 228.506,214.052 227.200,214.829 227.200 C 215.033 227.200,215.200 226.583,215.200 225.829 C 215.200 224.535,215.849 223.450,216.817 223.128 C 217.736 222.821,217.463 216.860,216.500 216.185 C 216.010 215.842,215.511 214.928,215.355 214.089 C 215.203 213.270,214.753 212.370,214.355 212.089 C 213.957 211.807,213.507 210.907,213.355 210.089 C 213.203 209.270,212.753 208.370,212.355 208.089 C 211.957 207.807,211.507 206.907,211.355 206.089 C 211.203 205.270,210.753 204.370,210.355 204.089 C 209.957 203.807,209.511 202.907,209.363 202.089 C 209.214 201.270,208.802 200.060,208.447 199.400 C 207.917 198.417,207.764 196.358,207.600 188.000 L 207.400 177.800 206.323 176.277 C 204.312 173.436,200.296 171.684,198.038 172.664 M101.200 291.200 C 101.200 293.067,101.133 293.200,100.200 293.200 L 99.200 293.200 99.200 297.627 L 99.200 302.053 100.219 301.927 C 101.249 301.799,104.000 296.252,104.000 294.302 C 104.000 293.898,104.371 293.066,104.825 292.452 C 106.256 290.517,105.580 289.200,103.157 289.200 L 101.200 289.200 101.200 291.200 M294.627 290.234 C 294.338 291.385,294.637 292.692,295.397 293.600 C 295.673 293.930,296.111 294.861,296.370 295.668 C 296.629 296.475,297.088 297.341,297.389 297.591 C 297.691 297.841,298.055 298.801,298.198 299.723 C 298.635 302.534,298.800 302.856,299.734 302.723 C 300.558 302.606,300.605 302.373,300.713 297.900 L 300.825 293.200 299.813 293.200 C 298.864 293.200,298.800 293.073,298.800 291.200 L 298.800 289.200 296.843 289.200 C 295.073 289.200,294.862 289.298,294.627 290.234 " stroke="none" fill="#fbfafb" fill-rule="evenodd"></path><path id="path1" d="M197.200 42.200 C 197.200 45.133,197.178 45.200,196.200 45.200 C 195.222 45.200,195.200 45.267,195.200 48.200 C 195.200 51.133,195.178 51.200,194.200 51.200 C 193.267 51.200,193.200 51.333,193.200 53.200 C 193.200 55.067,193.133 55.200,192.200 55.200 C 191.222 55.200,191.200 55.267,191.200 58.200 C 191.200 61.133,191.178 61.200,190.200 61.200 C 189.222 61.200,189.200 61.267,189.200 64.200 C 189.200 67.133,189.178 67.200,188.200 67.200 C 187.267 67.200,187.200 67.333,187.200 69.200 C 187.200 71.067,187.133 71.200,186.200 71.200 C 185.222 71.200,185.200 71.267,185.200 74.200 C 185.200 77.133,185.178 77.200,184.200 77.200 C 183.222 77.200,183.200 77.267,183.200 80.200 C 183.200 83.133,183.178 83.200,182.200 83.200 C 181.267 83.200,181.200 83.333,181.200 85.200 C 181.200 87.067,181.133 87.200,180.200 87.200 C 179.222 87.200,179.200 87.267,179.200 90.200 C 179.200 93.133,179.178 93.200,178.200 93.200 C 177.222 93.200,177.200 93.267,177.200 96.200 C 177.200 99.133,177.178 99.200,176.200 99.200 C 175.267 99.200,175.200 99.333,175.200 101.200 C 175.200 103.067,175.133 103.200,174.200 103.200 C 173.222 103.200,173.200 103.267,173.200 106.200 C 173.200 109.133,173.178 109.200,172.200 109.200 C 171.222 109.200,171.200 109.267,171.200 112.200 C 171.200 115.133,171.178 115.200,170.200 115.200 C 169.267 115.200,169.200 115.333,169.200 117.200 C 169.200 119.067,169.133 119.200,168.200 119.200 C 167.222 119.200,167.200 119.267,167.200 122.200 C 167.200 125.133,167.178 125.200,166.200 125.200 C 165.222 125.200,165.200 125.267,165.200 128.200 C 165.200 131.133,165.178 131.200,164.200 131.200 C 163.267 131.200,163.200 131.333,163.200 133.200 C 163.200 135.067,163.133 135.200,162.200 135.200 C 161.222 135.200,161.200 135.267,161.200 138.200 C 161.200 141.133,161.178 141.200,160.200 141.200 C 159.222 141.200,159.200 141.267,159.200 144.200 C 159.200 147.133,159.178 147.200,158.200 147.200 C 157.267 147.200,157.200 147.333,157.200 149.200 C 157.200 151.067,157.133 151.200,156.200 151.200 C 155.222 151.200,155.200 151.267,155.200 154.200 C 155.200 157.133,155.178 157.200,154.200 157.200 C 153.222 157.200,153.200 157.267,153.200 160.200 C 153.200 163.133,153.178 163.200,152.200 163.200 C 151.267 163.200,151.200 163.333,151.200 165.200 C 151.200 167.067,151.133 167.200,150.200 167.200 C 149.222 167.200,149.200 167.267,149.200 170.200 C 149.200 173.133,149.178 173.200,148.200 173.200 C 147.222 173.200,147.200 173.267,147.200 176.200 C 147.200 179.133,147.178 179.200,146.200 179.200 C 145.267 179.200,145.200 179.333,145.200 181.200 C 145.200 183.067,145.133 183.200,144.200 183.200 C 143.222 183.200,143.200 183.267,143.200 186.200 C 143.200 189.133,143.178 189.200,142.200 189.200 C 141.222 189.200,141.200 189.267,141.200 192.200 C 141.200 195.133,141.178 195.200,140.200 195.200 C 139.267 195.200,139.200 195.333,139.200 197.200 C 139.200 199.067,139.133 199.200,138.200 199.200 C 137.222 199.200,137.200 199.267,137.200 202.200 C 137.200 205.133,137.178 205.200,136.200 205.200 C 135.222 205.200,135.200 205.267,135.200 208.200 C 135.200 211.133,135.178 211.200,134.200 211.200 C 133.267 211.200,133.200 211.333,133.200 213.200 C 133.200 215.067,133.133 215.200,132.200 215.200 C 131.222 215.200,131.200 215.267,131.200 218.200 C 131.200 221.133,131.178 221.200,130.200 221.200 C 129.222 221.200,129.200 221.267,129.200 224.200 C 129.200 227.133,129.178 227.200,128.200 227.200 C 127.267 227.200,127.200 227.333,127.200 229.200 C 127.200 231.067,127.133 231.200,126.200 231.200 C 125.222 231.200,125.200 231.267,125.200 234.200 C 125.200 237.133,125.178 237.200,124.200 237.200 C 123.222 237.200,123.200 237.267,123.200 240.200 C 123.200 243.133,123.178 243.200,122.200 243.200 C 121.267 243.200,121.200 243.333,121.200 245.200 C 121.200 247.067,121.133 247.200,120.200 247.200 C 119.222 247.200,119.200 247.267,119.200 250.200 C 119.200 253.133,119.178 253.200,118.200 253.200 C 117.222 253.200,117.200 253.267,117.200 256.200 C 117.200 259.133,117.178 259.200,116.200 259.200 C 115.267 259.200,115.200 259.333,115.200 261.200 C 115.200 263.067,115.133 263.200,114.200 263.200 C 113.222 263.200,113.200 263.267,113.200 266.200 C 113.200 269.133,113.178 269.200,112.200 269.200 C 111.222 269.200,111.200 269.267,111.200 272.200 C 111.200 275.133,111.178 275.200,110.200 275.200 C 109.267 275.200,109.200 275.333,109.200 277.200 C 109.200 279.067,109.133 279.200,108.200 279.200 C 107.222 279.200,107.200 279.267,107.200 282.200 C 107.200 285.133,107.178 285.200,106.200 285.200 C 105.328 285.200,105.200 285.375,105.200 286.569 L 105.200 287.939 110.500 287.869 C 117.139 287.782,119.916 289.230,122.867 294.316 C 128.757 304.466,116.453 316.748,106.297 310.856 C 104.204 309.642,101.200 306.738,101.200 305.928 C 101.200 305.748,100.750 305.600,100.200 305.600 C 99.467 305.600,99.200 305.813,99.200 306.400 C 99.200 306.987,98.933 307.200,98.200 307.200 C 97.267 307.200,97.200 307.333,97.200 309.200 C 97.200 311.067,97.133 311.200,96.200 311.200 C 95.222 311.200,95.200 311.267,95.200 314.200 C 95.200 317.133,95.178 317.200,94.200 317.200 C 93.222 317.200,93.200 317.267,93.200 320.200 C 93.200 323.133,93.178 323.200,92.200 323.200 C 91.267 323.200,91.200 323.333,91.200 325.200 C 91.200 327.067,91.133 327.200,90.200 327.200 C 89.222 327.200,89.200 327.267,89.200 330.200 C 89.200 333.133,89.178 333.200,88.200 333.200 C 87.222 333.200,87.200 333.267,87.200 336.200 C 87.200 339.133,87.178 339.200,86.200 339.200 C 85.267 339.200,85.200 339.333,85.200 341.200 C 85.200 343.067,85.133 343.200,84.200 343.200 C 83.222 343.200,83.200 343.267,83.200 346.200 C 83.200 349.133,83.178 349.200,82.200 349.200 C 81.222 349.200,81.200 349.267,81.200 352.200 C 81.200 355.133,81.178 355.200,80.200 355.200 C 79.229 355.200,79.200 355.280,79.200 358.000 L 79.200 360.800 111.000 360.800 L 142.800 360.800 142.800 357.800 C 142.800 354.867,142.822 354.800,143.800 354.800 C 144.778 354.800,144.800 354.733,144.800 351.800 C 144.800 348.867,144.822 348.800,145.800 348.800 C 146.733 348.800,146.800 348.667,146.800 346.800 C 146.800 344.933,146.867 344.800,147.800 344.800 C 148.778 344.800,148.800 344.733,148.800 341.800 C 148.800 338.867,148.822 338.800,149.800 338.800 C 150.778 338.800,150.800 338.733,150.800 335.800 C 150.800 332.867,150.822 332.800,151.800 332.800 C 152.733 332.800,152.800 332.667,152.800 330.800 C 152.800 328.933,152.867 328.800,153.800 328.800 C 154.778 328.800,154.800 328.733,154.800 325.800 C 154.800 322.867,154.822 322.800,155.800 322.800 C 156.778 322.800,156.800 322.733,156.800 319.800 C 156.800 316.867,156.822 316.800,157.800 316.800 C 158.733 316.800,158.800 316.667,158.800 314.800 C 158.800 312.933,158.867 312.800,159.800 312.800 C 160.778 312.800,160.800 312.733,160.800 309.800 C 160.800 306.867,160.822 306.800,161.800 306.800 C 162.778 306.800,162.800 306.733,162.800 303.800 C 162.800 300.867,162.822 300.800,163.800 300.800 C 164.733 300.800,164.800 300.667,164.800 298.800 C 164.800 296.933,164.867 296.800,165.800 296.800 C 166.778 296.800,166.800 296.733,166.800 293.800 C 166.800 290.867,166.822 290.800,167.800 290.800 C 168.778 290.800,168.800 290.733,168.800 287.800 C 168.800 286.067,168.969 284.800,169.200 284.800 C 169.736 284.800,169.708 283.350,169.153 282.311 C 168.906 281.851,165.306 278.067,161.153 273.900 C 156.999 269.734,153.600 266.015,153.600 265.635 C 153.600 265.255,153.150 264.553,152.600 264.075 C 151.092 262.763,151.092 257.237,152.600 255.925 C 153.150 255.447,153.600 254.762,153.600 254.403 C 153.600 252.920,155.657 251.708,158.539 251.491 C 161.368 251.279,164.000 251.736,164.000 252.439 C 164.000 252.660,164.600 253.092,165.334 253.398 C 166.067 253.704,168.570 255.840,170.896 258.144 C 177.097 264.284,178.800 264.900,178.800 261.000 C 178.800 258.920,178.855 258.800,179.800 258.800 C 180.778 258.800,180.800 258.733,180.800 255.800 C 180.800 252.867,180.822 252.800,181.800 252.800 C 182.733 252.800,182.800 252.667,182.800 250.800 C 182.800 248.933,182.867 248.800,183.800 248.800 C 184.778 248.800,184.800 248.733,184.800 245.800 C 184.800 242.845,184.816 242.800,185.827 242.800 L 186.855 242.800 186.691 239.100 C 186.522 235.277,185.645 232.047,184.384 230.600 C 184.000 230.160,183.565 229.227,183.417 228.528 C 183.270 227.828,182.899 227.048,182.595 226.796 C 182.290 226.543,181.830 225.675,181.571 224.868 C 181.313 224.061,180.748 223.011,180.315 222.536 C 179.152 221.259,179.644 216.725,181.045 215.807 C 181.738 215.353,182.000 214.813,182.000 213.837 C 182.000 212.844,182.262 212.321,183.000 211.837 C 183.738 211.353,184.000 210.830,184.000 209.837 C 184.000 208.844,184.262 208.321,185.000 207.837 C 185.738 207.353,186.000 206.830,186.000 205.837 C 186.000 204.844,186.262 204.321,187.000 203.837 C 187.738 203.353,188.000 202.830,188.000 201.837 C 188.000 200.844,188.262 200.321,189.000 199.837 C 189.745 199.349,190.000 198.832,190.000 197.811 C 190.000 197.043,190.250 196.299,190.568 196.120 C 191.030 195.860,191.162 193.936,191.268 185.877 C 191.395 176.350,191.434 175.926,192.242 175.277 C 192.705 174.904,193.194 174.285,193.329 173.900 C 193.464 173.515,193.811 173.200,194.099 173.200 C 194.387 173.200,194.919 172.853,195.283 172.429 C 196.583 170.910,203.252 170.866,204.713 172.366 C 205.091 172.754,205.715 173.185,206.100 173.323 C 206.485 173.462,206.800 173.842,206.800 174.168 C 206.800 174.494,207.082 174.918,207.427 175.111 C 208.499 175.711,208.781 178.294,208.790 187.638 C 208.799 196.004,208.857 196.727,209.560 197.364 C 209.979 197.743,210.433 198.652,210.571 199.386 C 210.709 200.119,211.077 200.932,211.390 201.192 C 211.703 201.452,212.171 202.325,212.430 203.132 C 212.689 203.939,213.146 204.882,213.446 205.226 C 213.745 205.570,214.201 206.470,214.459 207.226 C 214.717 207.982,215.247 209.013,215.636 209.519 C 216.026 210.024,216.459 210.957,216.598 211.591 C 216.737 212.226,217.101 212.952,217.405 213.204 C 217.710 213.457,218.177 214.325,218.443 215.132 C 218.709 215.939,219.260 217.052,219.667 217.604 C 220.760 219.085,220.297 223.313,218.944 224.200 C 218.262 224.647,218.000 225.191,218.000 226.163 C 218.000 227.156,217.738 227.679,217.000 228.163 C 216.262 228.647,216.000 229.170,216.000 230.163 C 216.000 231.141,215.738 231.680,215.042 232.136 C 214.001 232.818,213.727 234.039,213.347 239.700 L 213.139 242.800 214.170 242.800 C 215.185 242.800,215.200 242.843,215.200 245.800 C 215.200 248.733,215.222 248.800,216.200 248.800 C 217.133 248.800,217.200 248.933,217.200 250.800 C 217.200 252.667,217.267 252.800,218.200 252.800 C 219.178 252.800,219.200 252.867,219.200 255.800 C 219.200 258.733,219.222 258.800,220.200 258.800 C 221.156 258.800,221.200 258.907,221.200 261.200 C 221.200 265.372,222.474 264.801,230.231 257.152 L 235.862 251.600 238.431 251.556 C 243.073 251.476,242.788 251.374,245.600 254.120 C 248.157 256.617,248.400 257.129,248.400 260.013 C 248.400 262.387,248.265 262.905,247.400 263.838 C 246.850 264.431,246.400 265.172,246.400 265.485 C 246.400 265.797,243.246 269.201,239.391 273.048 C 231.464 280.961,228.657 284.800,230.800 284.800 C 231.031 284.800,231.200 286.067,231.200 287.800 C 231.200 290.733,231.222 290.800,232.200 290.800 C 233.178 290.800,233.200 290.867,233.200 293.800 C 233.200 296.733,233.222 296.800,234.200 296.800 C 235.133 296.800,235.200 296.933,235.200 298.800 C 235.200 300.667,235.267 300.800,236.200 300.800 C 237.178 300.800,237.200 300.867,237.200 303.800 C 237.200 306.733,237.222 306.800,238.200 306.800 C 239.178 306.800,239.200 306.867,239.200 309.800 C 239.200 312.733,239.222 312.800,240.200 312.800 C 241.133 312.800,241.200 312.933,241.200 314.800 C 241.200 316.667,241.267 316.800,242.200 316.800 C 243.178 316.800,243.200 316.867,243.200 319.800 C 243.200 322.733,243.222 322.800,244.200 322.800 C 245.178 322.800,245.200 322.867,245.200 325.800 C 245.200 328.733,245.222 328.800,246.200 328.800 C 247.133 328.800,247.200 328.933,247.200 330.800 C 247.200 332.667,247.267 332.800,248.200 332.800 C 249.178 332.800,249.200 332.867,249.200 335.800 C 249.200 338.733,249.222 338.800,250.200 338.800 C 251.178 338.800,251.200 338.867,251.200 341.800 C 251.200 344.733,251.222 344.800,252.200 344.800 C 253.133 344.800,253.200 344.933,253.200 346.800 C 253.200 348.667,253.267 348.800,254.200 348.800 C 255.178 348.800,255.200 348.867,255.200 351.800 C 255.200 354.733,255.222 354.800,256.200 354.800 C 257.178 354.800,257.200 354.867,257.200 357.800 L 257.200 360.800 289.000 360.800 L 320.800 360.800 320.800 358.000 C 320.800 355.280,320.771 355.200,319.800 355.200 C 318.822 355.200,318.800 355.133,318.800 352.200 C 318.800 349.267,318.778 349.200,317.800 349.200 C 316.822 349.200,316.800 349.133,316.800 346.200 C 316.800 343.267,316.778 343.200,315.800 343.200 C 314.867 343.200,314.800 343.067,314.800 341.200 C 314.800 339.333,314.733 339.200,313.800 339.200 C 312.822 339.200,312.800 339.133,312.800 336.200 C 312.800 333.267,312.778 333.200,311.800 333.200 C 310.822 333.200,310.800 333.133,310.800 330.200 C 310.800 327.267,310.778 327.200,309.800 327.200 C 308.867 327.200,308.800 327.067,308.800 325.200 C 308.800 323.333,308.733 323.200,307.800 323.200 C 306.822 323.200,306.800 323.133,306.800 320.200 C 306.800 317.267,306.778 317.200,305.800 317.200 C 304.822 317.200,304.800 317.133,304.800 314.200 C 304.800 311.267,304.778 311.200,303.800 311.200 C 302.867 311.200,302.800 311.067,302.800 309.200 C 302.800 307.348,302.728 307.200,301.827 307.200 C 301.062 307.200,300.826 306.964,300.727 306.100 C 300.576 304.790,299.363 304.758,298.400 306.039 C 293.959 311.950,288.086 313.653,282.644 310.610 C 273.616 305.561,273.642 294.424,282.694 289.362 C 285.322 287.893,286.952 287.757,293.400 288.468 C 294.550 288.595,294.605 288.529,294.723 286.900 C 294.838 285.311,294.779 285.200,293.823 285.200 C 292.817 285.200,292.800 285.151,292.800 282.200 C 292.800 279.267,292.778 279.200,291.800 279.200 C 290.867 279.200,290.800 279.067,290.800 277.200 C 290.800 275.333,290.733 275.200,289.800 275.200 C 288.822 275.200,288.800 275.133,288.800 272.200 C 288.800 269.267,288.778 269.200,287.800 269.200 C 286.822 269.200,286.800 269.133,286.800 266.200 C 286.800 263.267,286.778 263.200,285.800 263.200 C 284.867 263.200,284.800 263.067,284.800 261.200 C 284.800 259.333,284.733 259.200,283.800 259.200 C 282.822 259.200,282.800 259.133,282.800 256.200 C 282.800 253.267,282.778 253.200,281.800 253.200 C 280.822 253.200,280.800 253.133,280.800 250.200 C 280.800 247.267,280.778 247.200,279.800 247.200 C 278.867 247.200,278.800 247.067,278.800 245.200 C 278.800 243.333,278.733 243.200,277.800 243.200 C 276.822 243.200,276.800 243.133,276.800 240.200 C 276.800 237.267,276.778 237.200,275.800 237.200 C 274.822 237.200,274.800 237.133,274.800 234.200 C 274.800 231.267,274.778 231.200,273.800 231.200 C 272.867 231.200,272.800 231.067,272.800 229.200 C 272.800 227.333,272.733 227.200,271.800 227.200 C 270.822 227.200,270.800 227.133,270.800 224.200 C 270.800 221.267,270.778 221.200,269.800 221.200 C 268.822 221.200,268.800 221.133,268.800 218.200 C 268.800 215.267,268.778 215.200,267.800 215.200 C 266.867 215.200,266.800 215.067,266.800 213.200 C 266.800 211.333,266.733 211.200,265.800 211.200 C 264.822 211.200,264.800 211.133,264.800 208.200 C 264.800 205.267,264.778 205.200,263.800 205.200 C 262.822 205.200,262.800 205.133,262.800 202.200 C 262.800 199.267,262.778 199.200,261.800 199.200 C 260.867 199.200,260.800 199.067,260.800 197.200 C 260.800 195.333,260.733 195.200,259.800 195.200 C 258.822 195.200,258.800 195.133,258.800 192.200 C 258.800 189.267,258.778 189.200,257.800 189.200 C 256.822 189.200,256.800 189.133,256.800 186.200 C 256.800 183.267,256.778 183.200,255.800 183.200 C 254.867 183.200,254.800 183.067,254.800 181.200 C 254.800 179.333,254.733 179.200,253.800 179.200 C 252.822 179.200,252.800 179.133,252.800 176.200 C 252.800 173.267,252.778 173.200,251.800 173.200 C 250.822 173.200,250.800 173.133,250.800 170.200 C 250.800 167.267,250.778 167.200,249.800 167.200 C 248.867 167.200,248.800 167.067,248.800 165.200 C 248.800 163.333,248.733 163.200,247.800 163.200 C 246.822 163.200,246.800 163.133,246.800 160.200 C 246.800 157.267,246.778 157.200,245.800 157.200 C 244.822 157.200,244.800 157.133,244.800 154.200 C 244.800 151.267,244.778 151.200,243.800 151.200 C 242.867 151.200,242.800 151.067,242.800 149.200 C 242.800 147.333,242.733 147.200,241.800 147.200 C 240.822 147.200,240.800 147.133,240.800 144.200 C 240.800 141.267,240.778 141.200,239.800 141.200 C 238.822 141.200,238.800 141.133,238.800 138.200 C 238.800 135.267,238.778 135.200,237.800 135.200 C 236.867 135.200,236.800 135.067,236.800 133.200 C 236.800 131.333,236.733 131.200,235.800 131.200 C 234.822 131.200,234.800 131.133,234.800 128.200 C 234.800 125.267,234.778 125.200,233.800 125.200 C 232.822 125.200,232.800 125.133,232.800 122.200 C 232.800 119.267,232.778 119.200,231.800 119.200 C 230.867 119.200,230.800 119.067,230.800 117.200 C 230.800 115.333,230.733 115.200,229.800 115.200 C 228.822 115.200,228.800 115.133,228.800 112.200 C 228.800 109.267,228.778 109.200,227.800 109.200 C 226.822 109.200,226.800 109.133,226.800 106.200 C 226.800 103.267,226.778 103.200,225.800 103.200 C 224.867 103.200,224.800 103.067,224.800 101.200 C 224.800 99.333,224.733 99.200,223.800 99.200 C 222.822 99.200,222.800 99.133,222.800 96.200 C 222.800 93.267,222.778 93.200,221.800 93.200 C 220.822 93.200,220.800 93.133,220.800 90.200 C 220.800 87.267,220.778 87.200,219.800 87.200 C 218.867 87.200,218.800 87.067,218.800 85.200 C 218.800 83.333,218.733 83.200,217.800 83.200 C 216.822 83.200,216.800 83.133,216.800 80.200 C 216.800 77.267,216.778 77.200,215.800 77.200 C 214.822 77.200,214.800 77.133,214.800 74.200 C 214.800 71.267,214.778 71.200,213.800 71.200 C 212.867 71.200,212.800 71.067,212.800 69.200 C 212.800 67.333,212.733 67.200,211.800 67.200 C 210.822 67.200,210.800 67.133,210.800 64.200 C 210.800 61.267,210.778 61.200,209.800 61.200 C 208.822 61.200,208.800 61.133,208.800 58.200 C 208.800 55.267,208.778 55.200,207.800 55.200 C 206.867 55.200,206.800 55.067,206.800 53.200 C 206.800 51.333,206.733 51.200,205.800 51.200 C 204.822 51.200,204.800 51.133,204.800 48.200 C 204.800 45.267,204.778 45.200,203.800 45.200 C 202.822 45.200,202.800 45.133,202.800 42.200 L 202.800 39.200 200.000 39.200 L 197.200 39.200 197.200 42.200 M205.240 88.793 C 206.208 89.449,207.159 89.989,207.354 89.993 C 208.220 90.011,210.289 92.786,211.816 95.978 C 213.989 100.517,211.397 107.167,206.080 110.697 C 201.634 113.650,195.458 112.844,191.100 108.743 C 190.495 108.174,189.997 107.549,189.993 107.354 C 189.989 107.159,189.435 106.190,188.761 105.200 C 185.727 100.738,188.125 92.544,193.354 89.504 C 194.209 89.007,195.289 88.378,195.754 88.106 C 197.565 87.048,203.275 87.461,205.240 88.793 " stroke="none" fill="#6d64c5" fill-rule="evenodd"></path><path id="path2" d="M197.900 88.668 C 197.295 88.770,196.800 89.019,196.800 89.221 C 196.800 89.424,196.125 89.871,195.300 90.215 C 193.286 91.055,191.264 93.036,190.345 95.068 C 189.930 95.986,189.376 96.808,189.113 96.896 C 188.180 97.207,188.504 102.504,189.518 103.518 C 190.003 104.003,190.400 104.669,190.400 104.999 C 190.400 106.008,193.295 108.869,195.097 109.642 C 196.034 110.043,196.800 110.558,196.800 110.786 C 196.800 111.037,198.060 111.200,200.000 111.200 C 201.970 111.200,203.200 111.038,203.200 110.780 C 203.200 110.548,203.871 110.079,204.690 109.737 C 206.599 108.939,208.939 106.599,209.737 104.690 C 210.079 103.871,210.548 103.200,210.780 103.200 C 211.038 103.200,211.200 101.970,211.200 100.000 C 211.200 98.060,211.037 96.800,210.786 96.800 C 210.558 96.800,210.043 96.034,209.642 95.097 C 208.869 93.295,206.008 90.400,204.999 90.400 C 204.669 90.400,204.047 90.047,203.616 89.616 C 202.799 88.799,199.938 88.325,197.900 88.668 M195.724 173.042 C 192.431 175.028,192.236 175.715,191.933 186.400 C 191.619 197.491,191.445 198.831,190.161 200.036 C 189.615 200.550,189.200 201.397,189.200 202.000 C 189.200 202.614,188.779 203.456,188.200 204.000 C 187.621 204.544,187.200 205.386,187.200 206.000 C 187.200 206.614,186.779 207.456,186.200 208.000 C 185.621 208.544,185.200 209.386,185.200 210.000 C 185.200 210.614,184.779 211.456,184.200 212.000 C 183.621 212.544,183.200 213.386,183.200 214.000 C 183.200 214.614,182.779 215.456,182.200 216.000 C 181.650 216.517,181.200 217.346,181.200 217.844 C 181.200 218.341,181.028 219.200,180.818 219.752 C 180.495 220.602,180.837 221.544,183.038 225.878 C 186.012 231.733,187.200 234.600,187.200 235.924 C 187.200 236.437,187.377 236.738,187.600 236.600 C 188.167 236.249,188.095 234.203,187.463 232.687 C 187.167 231.979,186.798 230.721,186.643 229.891 C 186.488 229.061,186.009 228.163,185.580 227.895 C 185.151 227.627,184.800 227.079,184.800 226.677 C 184.800 225.748,184.051 224.334,183.245 223.740 C 182.090 222.889,182.463 217.404,183.757 216.205 C 184.382 215.626,184.800 214.808,184.800 214.165 C 184.800 213.534,185.212 212.710,185.800 212.165 C 186.388 211.620,186.800 210.796,186.800 210.165 C 186.800 209.534,187.212 208.710,187.800 208.165 C 188.388 207.620,188.800 206.796,188.800 206.165 C 188.800 205.534,189.212 204.710,189.800 204.165 C 190.369 203.637,190.800 202.793,190.800 202.205 C 190.800 201.637,191.114 200.693,191.498 200.107 C 192.103 199.183,192.223 197.627,192.400 188.421 L 192.604 177.800 193.680 176.277 C 195.456 173.762,197.439 172.612,200.000 172.612 C 202.560 172.612,204.542 173.761,206.323 176.277 L 207.400 177.800 207.600 188.000 C 207.764 196.358,207.917 198.417,208.447 199.400 C 208.802 200.060,209.214 201.270,209.363 202.089 C 209.511 202.907,209.957 203.807,210.355 204.089 C 210.753 204.370,211.203 205.270,211.355 206.089 C 211.507 206.907,211.957 207.807,212.355 208.089 C 212.753 208.370,213.203 209.270,213.355 210.089 C 213.507 210.907,213.957 211.807,214.355 212.089 C 214.753 212.370,215.203 213.270,215.355 214.089 C 215.511 214.928,216.010 215.842,216.500 216.185 C 217.463 216.860,217.736 222.821,216.817 223.128 C 215.849 223.450,215.200 224.535,215.200 225.829 C 215.200 226.583,215.033 227.200,214.829 227.200 C 214.052 227.200,213.200 228.506,213.200 229.697 C 213.200 230.379,212.909 231.259,212.552 231.653 C 212.064 232.192,211.968 232.791,212.164 234.084 C 212.573 236.789,213.293 237.435,213.089 234.913 C 212.944 233.117,213.051 232.704,213.860 231.944 C 214.388 231.447,214.800 230.596,214.800 230.000 C 214.800 229.386,215.221 228.544,215.800 228.000 C 216.379 227.456,216.800 226.614,216.800 226.000 C 216.800 225.386,217.221 224.544,217.800 224.000 C 218.419 223.418,218.800 222.620,218.800 221.904 C 218.800 221.268,218.989 220.394,219.220 219.963 C 219.545 219.356,219.466 218.933,218.872 218.089 C 218.450 217.490,217.968 216.550,217.800 216.000 C 217.632 215.450,217.184 214.550,216.803 214.000 C 216.422 213.450,215.897 212.339,215.635 211.532 C 215.373 210.725,214.898 209.848,214.580 209.583 C 214.261 209.318,214.000 208.789,214.000 208.407 C 214.000 208.024,213.550 207.049,213.000 206.238 C 212.450 205.428,212.000 204.600,212.000 204.399 C 212.000 204.197,211.157 202.450,210.127 200.516 L 208.254 197.000 208.027 187.000 C 207.812 177.541,207.751 176.923,206.904 175.574 C 204.659 172.000,199.419 170.814,195.724 173.042 M155.460 253.341 C 152.340 256.660,151.148 261.117,152.858 263.065 C 153.213 263.469,153.811 264.407,154.187 265.149 C 154.563 265.891,158.140 269.768,162.136 273.764 C 169.205 280.836,170.400 282.328,170.400 284.085 C 170.400 284.552,170.504 284.830,170.630 284.703 C 172.015 283.318,170.330 280.832,163.156 273.676 C 159.220 269.751,156.000 266.337,156.000 266.089 C 156.000 265.842,155.775 265.496,155.500 265.320 C 154.889 264.929,152.800 260.813,152.800 260.000 C 152.800 259.054,154.906 255.202,156.078 254.006 C 157.642 252.410,160.703 252.148,162.479 253.459 C 163.181 253.976,164.023 254.400,164.349 254.400 C 164.676 254.400,167.116 256.596,169.772 259.279 C 174.501 264.058,174.643 264.164,176.700 264.400 C 179.275 264.697,179.510 264.197,176.974 263.817 C 175.312 263.568,174.744 263.139,170.674 259.059 C 163.489 251.858,158.586 250.015,155.460 253.341 M238.358 252.365 C 236.356 252.646,233.673 254.799,227.800 260.838 C 225.360 263.347,224.780 263.742,223.291 263.912 C 222.351 264.019,221.508 264.225,221.418 264.371 C 221.328 264.517,222.187 264.527,223.327 264.394 C 225.299 264.163,225.598 263.958,229.489 260.175 C 236.922 252.950,236.954 252.925,239.207 252.709 C 240.991 252.538,241.406 252.651,242.672 253.657 C 243.463 254.286,244.310 254.809,244.555 254.820 C 245.037 254.842,247.200 259.126,247.200 260.060 C 247.200 260.374,246.840 261.337,246.400 262.200 C 245.960 263.063,245.600 264.031,245.600 264.350 C 245.600 264.836,242.944 267.623,230.816 279.858 C 230.014 280.666,228.930 285.014,229.639 284.576 C 229.812 284.469,230.073 283.589,230.218 282.620 C 230.463 280.987,231.024 280.315,237.976 273.330 C 247.888 263.371,249.252 260.577,246.312 256.251 C 245.198 254.611,241.731 251.971,240.801 252.053 C 240.471 252.083,239.371 252.223,238.358 252.365 M108.971 289.246 C 108.803 289.518,108.005 289.614,106.926 289.493 C 105.178 289.296,105.160 289.306,105.394 290.373 C 105.559 291.124,105.383 291.768,104.816 292.489 C 104.367 293.060,104.000 293.866,104.000 294.282 C 104.000 296.248,101.255 301.798,100.219 301.927 C 98.716 302.113,98.778 303.880,100.300 304.258 C 100.905 304.408,102.445 305.536,103.722 306.765 C 104.999 307.994,106.734 309.299,107.576 309.664 C 108.419 310.029,109.230 310.524,109.378 310.764 C 109.791 311.432,114.207 311.315,114.783 310.620 C 115.048 310.302,115.863 309.843,116.595 309.602 C 118.020 309.131,121.600 305.605,121.600 304.671 C 121.600 304.361,121.960 303.650,122.400 303.091 C 122.966 302.371,123.200 301.468,123.200 300.000 C 123.200 298.532,122.966 297.629,122.400 296.909 C 121.960 296.350,121.600 295.639,121.600 295.329 C 121.600 294.395,118.020 290.869,116.595 290.398 C 115.863 290.157,115.048 289.698,114.783 289.380 C 114.198 288.674,109.393 288.564,108.971 289.246 M294.243 290.233 C 293.842 291.277,293.969 293.934,294.433 294.220 C 294.671 294.368,295.216 295.233,295.643 296.144 C 296.071 297.055,296.672 298.250,296.980 298.800 C 297.288 299.350,297.740 300.565,297.986 301.500 C 298.400 303.077,300.800 304.233,300.800 302.855 C 300.800 302.666,300.368 302.594,299.839 302.695 C 298.791 302.895,298.651 302.642,298.198 299.723 C 298.055 298.801,297.691 297.841,297.389 297.591 C 297.088 297.341,296.629 296.475,296.370 295.668 C 296.111 294.861,295.611 293.871,295.259 293.468 C 294.905 293.064,294.618 292.034,294.618 291.168 C 294.618 289.412,294.587 289.335,294.243 290.233 " stroke="none" fill="#b4b4e7" fill-rule="evenodd"></path><path id="path3" d="M236.652 252.316 C 236.544 252.490,237.118 252.567,237.928 252.487 C 240.142 252.269,240.405 252.067,238.524 252.032 C 237.602 252.014,236.759 252.142,236.652 252.316 M244.532 254.146 C 244.935 254.470,245.530 255.065,245.854 255.468 C 246.403 256.149,246.414 256.138,246.013 255.309 C 245.776 254.819,245.181 254.224,244.691 253.987 C 243.862 253.586,243.851 253.597,244.532 254.146 M247.693 260.000 C 247.693 260.770,247.775 261.085,247.876 260.700 C 247.976 260.315,247.976 259.685,247.876 259.300 C 247.775 258.915,247.693 259.230,247.693 260.000 M246.869 262.713 C 245.931 264.634,245.891 265.036,246.777 263.658 C 247.251 262.920,247.585 262.161,247.519 261.971 C 247.454 261.782,247.161 262.115,246.869 262.713 M231.227 280.171 C 230.725 280.706,230.409 281.381,230.526 281.671 C 230.689 282.082,230.744 282.071,230.768 281.626 C 230.786 281.310,231.191 280.635,231.670 280.126 C 232.148 279.617,232.449 279.200,232.339 279.200 C 232.229 279.200,231.729 279.637,231.227 280.171 M285.617 289.380 C 285.352 289.698,284.507 290.167,283.737 290.421 C 281.914 291.022,279.012 293.947,278.401 295.797 C 278.136 296.600,277.668 297.353,277.360 297.471 C 276.579 297.770,276.595 301.732,277.380 302.383 C 277.698 302.648,278.171 303.505,278.430 304.289 C 278.995 306.002,282.174 309.133,283.680 309.458 C 284.273 309.587,285.066 310.031,285.442 310.446 C 285.925 310.980,286.670 311.200,288.000 311.200 C 289.330 311.200,290.075 310.980,290.558 310.446 C 290.934 310.031,291.727 309.595,292.321 309.476 C 292.949 309.350,294.465 308.159,295.941 306.630 C 297.922 304.578,298.735 304.000,299.640 304.000 C 300.278 304.000,300.800 303.820,300.800 303.600 C 300.800 303.380,300.267 303.200,299.616 303.200 C 298.560 303.200,298.384 303.017,297.986 301.500 C 297.740 300.565,297.288 299.350,296.980 298.800 C 296.672 298.250,296.071 297.055,295.643 296.144 C 295.216 295.233,294.671 294.368,294.433 294.220 C 293.869 293.872,293.875 290.982,294.442 289.922 C 294.869 289.124,294.852 289.118,293.953 289.748 C 292.727 290.607,291.925 290.571,290.691 289.600 C 289.462 288.634,286.348 288.498,285.617 289.380 " stroke="none" fill="#bcacd4" fill-rule="evenodd"></path><path id="path4" d="M195.754 88.106 C 195.289 88.378,194.209 89.007,193.354 89.504 C 188.125 92.544,185.727 100.738,188.761 105.200 C 189.435 106.190,189.989 107.159,189.993 107.354 C 190.011 108.220,192.786 110.289,195.978 111.816 C 204.319 115.808,215.808 104.319,211.816 95.978 C 210.289 92.786,208.220 90.011,207.354 89.993 C 207.159 89.989,206.208 89.449,205.240 88.793 C 203.275 87.461,197.565 87.048,195.754 88.106 M203.616 89.616 C 204.047 90.047,204.669 90.400,204.999 90.400 C 206.008 90.400,208.869 93.295,209.642 95.097 C 210.043 96.034,210.558 96.800,210.786 96.800 C 211.037 96.800,211.200 98.060,211.200 100.000 C 211.200 101.970,211.038 103.200,210.780 103.200 C 210.548 103.200,210.079 103.871,209.737 104.690 C 208.939 106.599,206.599 108.939,204.690 109.737 C 203.871 110.079,203.200 110.548,203.200 110.780 C 203.200 111.038,201.970 111.200,200.000 111.200 C 198.060 111.200,196.800 111.037,196.800 110.786 C 196.800 110.558,196.034 110.043,195.097 109.642 C 193.295 108.869,190.400 106.008,190.400 104.999 C 190.400 104.669,190.003 104.003,189.518 103.518 C 188.504 102.504,188.180 97.207,189.113 96.896 C 189.376 96.808,189.930 95.986,190.345 95.068 C 191.264 93.036,193.286 91.055,195.300 90.215 C 196.125 89.871,196.800 89.424,196.800 89.221 C 196.800 88.133,202.461 88.461,203.616 89.616 M196.500 171.648 C 195.785 171.854,195.200 172.202,195.200 172.421 C 195.200 172.640,194.750 172.991,194.200 173.200 C 193.650 173.409,193.200 173.833,193.200 174.141 C 193.200 174.450,192.795 174.971,192.300 175.300 C 191.413 175.888,191.398 176.041,191.268 185.848 C 191.162 193.932,191.030 195.860,190.568 196.120 C 190.250 196.299,190.000 197.043,190.000 197.811 C 190.000 198.832,189.745 199.349,189.000 199.837 C 188.262 200.321,188.000 200.844,188.000 201.837 C 188.000 202.830,187.738 203.353,187.000 203.837 C 186.262 204.321,186.000 204.844,186.000 205.837 C 186.000 206.830,185.738 207.353,185.000 207.837 C 184.262 208.321,184.000 208.844,184.000 209.837 C 184.000 210.830,183.738 211.353,183.000 211.837 C 182.262 212.321,182.000 212.844,182.000 213.837 C 182.000 214.813,181.738 215.353,181.045 215.807 C 179.644 216.725,179.152 221.259,180.315 222.536 C 180.748 223.011,181.313 224.061,181.571 224.868 C 181.830 225.675,182.297 226.548,182.610 226.808 C 182.923 227.068,183.291 227.881,183.429 228.614 C 183.567 229.348,184.011 230.248,184.417 230.615 C 184.823 230.983,185.274 231.828,185.421 232.495 C 185.888 234.622,187.181 237.182,187.191 236.000 C 187.203 234.609,186.070 231.848,183.038 225.878 C 180.837 221.544,180.495 220.602,180.818 219.752 C 181.028 219.200,181.200 218.341,181.200 217.844 C 181.200 217.346,181.650 216.517,182.200 216.000 C 182.779 215.456,183.200 214.614,183.200 214.000 C 183.200 213.386,183.621 212.544,184.200 212.000 C 184.779 211.456,185.200 210.614,185.200 210.000 C 185.200 209.386,185.621 208.544,186.200 208.000 C 186.779 207.456,187.200 206.614,187.200 206.000 C 187.200 205.386,187.621 204.544,188.200 204.000 C 188.779 203.456,189.200 202.614,189.200 202.000 C 189.200 201.397,189.615 200.550,190.161 200.036 C 191.445 198.831,191.619 197.491,191.933 186.400 C 192.281 174.129,193.494 172.000,200.135 172.000 C 206.618 172.000,207.735 174.123,208.027 187.000 L 208.254 197.000 210.127 200.516 C 211.157 202.450,212.000 204.197,212.000 204.399 C 212.000 204.600,212.450 205.428,213.000 206.238 C 213.550 207.049,214.000 208.024,214.000 208.407 C 214.000 208.789,214.261 209.318,214.580 209.583 C 214.898 209.848,215.373 210.725,215.635 211.532 C 215.897 212.339,216.422 213.450,216.803 214.000 C 217.184 214.550,217.632 215.450,217.800 216.000 C 217.968 216.550,218.443 217.480,218.856 218.066 C 219.452 218.913,219.523 219.349,219.203 220.192 C 218.981 220.775,218.800 221.659,218.800 222.156 C 218.800 222.654,218.350 223.483,217.800 224.000 C 217.221 224.544,216.800 225.386,216.800 226.000 C 216.800 226.614,216.379 227.456,215.800 228.000 C 215.221 228.544,214.800 229.386,214.800 230.000 C 214.800 230.611,214.381 231.454,213.812 231.988 C 213.269 232.499,212.930 233.087,213.059 233.295 C 213.188 233.504,213.283 234.416,213.271 235.322 C 213.255 236.480,213.358 236.796,213.618 236.385 C 213.821 236.063,213.991 235.129,213.994 234.309 C 213.999 233.164,214.232 232.666,215.000 232.163 C 215.738 231.679,216.000 231.156,216.000 230.163 C 216.000 229.170,216.262 228.647,217.000 228.163 C 217.738 227.679,218.000 227.156,218.000 226.163 C 218.000 225.191,218.262 224.647,218.944 224.200 C 220.293 223.316,220.760 219.088,219.673 217.604 C 219.269 217.052,218.725 215.982,218.464 215.226 C 218.203 214.470,217.745 213.570,217.446 213.226 C 217.146 212.882,216.689 211.939,216.430 211.132 C 216.171 210.325,215.710 209.457,215.405 209.204 C 215.101 208.952,214.737 208.226,214.598 207.591 C 214.459 206.957,214.023 206.024,213.631 205.519 C 213.238 205.013,212.701 203.939,212.438 203.132 C 212.174 202.325,211.703 201.452,211.390 201.192 C 211.077 200.932,210.709 200.119,210.571 199.386 C 210.433 198.652,209.979 197.743,209.560 197.364 C 208.857 196.727,208.799 196.004,208.790 187.638 C 208.781 178.294,208.499 175.711,207.427 175.111 C 207.082 174.918,206.800 174.495,206.800 174.170 C 206.800 173.846,206.369 173.416,205.842 173.216 C 205.315 173.016,204.817 172.651,204.735 172.405 C 204.392 171.376,199.120 170.891,196.500 171.648 M158.000 251.497 C 155.670 251.655,153.600 253.022,153.600 254.403 C 153.600 254.762,153.150 255.447,152.600 255.925 C 151.689 256.717,151.600 257.080,151.600 260.000 C 151.600 262.920,151.689 263.283,152.600 264.075 C 153.150 264.553,153.600 265.255,153.600 265.635 C 153.600 266.015,156.999 269.734,161.153 273.900 C 168.843 281.613,169.600 282.516,169.600 283.974 C 169.600 284.428,169.780 284.800,170.000 284.800 C 170.551 284.800,170.501 283.461,169.900 282.134 C 169.625 281.527,166.131 277.761,162.136 273.764 C 158.140 269.768,154.563 265.891,154.187 265.149 C 153.811 264.407,153.213 263.469,152.858 263.065 C 151.826 261.890,152.027 258.158,153.225 256.241 C 157.403 249.558,161.922 250.288,170.674 259.059 C 175.057 263.452,178.800 265.565,178.800 263.645 C 178.800 263.400,178.338 263.200,177.774 263.200 C 176.194 263.200,175.447 262.651,170.896 258.144 C 168.570 255.840,166.067 253.704,165.334 253.398 C 164.600 253.092,164.000 252.660,164.000 252.439 C 164.000 252.040,161.365 251.139,160.600 251.276 C 160.380 251.316,159.210 251.415,158.000 251.497 M238.317 251.600 L 235.634 251.800 229.917 257.468 C 226.009 261.343,223.820 263.220,223.000 263.403 C 220.947 263.860,220.919 264.009,222.930 263.770 C 224.738 263.556,225.118 263.285,228.931 259.471 C 237.283 251.120,239.286 250.283,243.680 253.306 C 250.598 258.066,249.541 262.005,238.314 273.320 C 231.311 280.378,229.776 282.415,230.129 284.188 C 230.275 284.917,230.297 284.907,230.346 284.092 C 230.447 282.402,232.362 280.064,239.391 273.048 C 243.246 269.201,246.400 265.797,246.400 265.485 C 246.400 265.172,246.850 264.431,247.400 263.838 C 248.265 262.905,248.400 262.387,248.400 260.013 C 248.400 257.129,248.157 256.617,245.600 254.120 C 242.753 251.339,242.587 251.282,238.317 251.600 M107.300 287.873 C 104.253 288.118,104.518 289.600,107.609 289.600 C 108.238 289.600,108.864 289.420,109.000 289.200 C 109.399 288.554,114.222 288.704,114.783 289.380 C 115.048 289.698,115.863 290.157,116.595 290.398 C 118.020 290.869,121.600 294.395,121.600 295.329 C 121.600 295.639,121.960 296.350,122.400 296.909 C 122.966 297.629,123.200 298.532,123.200 300.000 C 123.200 301.468,122.966 302.371,122.400 303.091 C 121.960 303.650,121.600 304.361,121.600 304.671 C 121.600 305.605,118.020 309.131,116.595 309.602 C 115.863 309.843,115.048 310.302,114.783 310.620 C 114.207 311.315,109.791 311.432,109.378 310.764 C 109.230 310.524,108.419 310.029,107.576 309.664 C 106.734 309.299,104.999 307.994,103.722 306.765 C 101.132 304.273,99.200 303.430,99.200 304.792 C 99.200 305.387,99.464 305.600,100.200 305.600 C 100.750 305.600,101.200 305.748,101.200 305.928 C 101.200 306.738,104.204 309.642,106.297 310.856 C 116.453 316.748,128.757 304.466,122.867 294.316 C 119.663 288.795,115.783 287.189,107.300 287.873 M282.719 289.319 C 276.291 293.047,274.135 299.536,277.390 305.356 C 282.253 314.051,292.425 314.362,298.400 305.998 C 298.730 305.536,299.405 305.129,299.900 305.094 C 301.246 304.998,301.009 304.000,299.640 304.000 C 298.735 304.000,297.922 304.578,295.941 306.630 C 294.465 308.159,292.949 309.350,292.321 309.476 C 291.727 309.595,290.934 310.031,290.558 310.446 C 290.075 310.980,289.330 311.200,288.000 311.200 C 286.670 311.200,285.925 310.980,285.442 310.446 C 285.066 310.031,284.273 309.587,283.680 309.458 C 282.174 309.133,278.995 306.002,278.430 304.289 C 278.171 303.505,277.698 302.648,277.380 302.383 C 276.595 301.732,276.579 297.770,277.360 297.471 C 277.668 297.353,278.136 296.600,278.401 295.797 C 279.012 293.947,281.914 291.022,283.737 290.421 C 284.507 290.167,285.352 289.698,285.617 289.380 C 286.348 288.498,289.462 288.634,290.691 289.600 C 292.082 290.694,294.800 290.205,294.800 288.860 C 294.800 287.574,285.093 287.942,282.719 289.319 " stroke="none" fill="#a39ad7" fill-rule="evenodd"></path></g></svg>